<svg width="342" height="152" viewBox="0 0 342 152" fill="none" xmlns="http://www.w3.org/2000/svg">
<path d="M144.113 106C144.113 90.3 137.913 81 122.513 81C107.113 81 100.913 91.3 100.913 107C100.913 116.9 103.713 133 126.313 133C130.113 133 132.913 133 140.713 131V122.2C134.213 124 130.313 124 126.313 124C114.613 124 111.813 118.5 111.113 111.5H144.113V106ZM122.513 90C130.613 90 133.913 93.8 134.113 102.5H110.913C111.413 94.4 114.813 90 122.513 90ZM177.859 82H148.659V132H158.659V91H177.859V82ZM212.64 71V62H188.44V82H180.44V91H188.44V132H198.44V91H212.64V82H198.44V71H212.64ZM254.273 106C254.273 90.3 248.073 81 232.673 81C217.273 81 211.073 91.3 211.073 107C211.073 116.9 213.873 133 236.473 133C240.273 133 243.073 133 250.873 131V122.2C244.373 124 240.473 124 236.473 124C224.773 124 221.973 118.5 221.273 111.5H254.273V106ZM232.673 90C240.773 90 244.073 93.8 244.273 102.5H221.073C221.573 94.4 224.973 90 232.673 90ZM285.992 91V82H272.792V62H262.792V82H254.792V91H262.792V132H285.992V123H272.792V91H285.992ZM334.503 82H302.503V62H292.503V132H302.503V91H324.503V132H334.503V82Z" fill="#FFB448"/>
<path d="M69.297 0C56.5325 0.0145574 44.2949 5.0918 35.2691 14.1178C26.2432 23.1438 21.1663 35.3814 21.152 48.146V77.401H16.045C15.2841 75.7724 13.9905 74.4519 12.3778 73.6578C10.7651 72.8636 8.92978 72.6432 7.17491 73.0329C5.42004 73.4226 3.85056 74.3992 2.72565 75.8014C1.60073 77.2035 0.987656 78.9474 0.987656 80.745C0.987656 82.5426 1.60073 84.2865 2.72565 85.6887C3.85056 87.0908 5.42004 88.0674 7.17491 88.4571C8.92978 88.8468 10.7651 88.6264 12.3778 87.8323C13.9905 87.0381 15.2841 85.7176 16.045 84.089H21.145V116.928H27.833V84.089H33.347V130.823C31.7163 131.58 30.3924 132.87 29.5939 134.48C28.7954 136.091 28.5701 137.925 28.9551 139.681C29.3401 141.437 30.3124 143.009 31.7115 144.138C33.1107 145.267 34.8528 145.884 36.6505 145.889C38.4481 145.894 40.1936 145.286 41.5988 144.165C43.0039 143.043 43.9847 141.477 44.3792 139.723C44.7736 137.969 44.5582 136.133 43.7684 134.518C42.9785 132.903 41.6616 131.606 40.035 130.841V84.089H45.55V131.271L52.238 127.821V84.089H69.291C76.3999 84.089 83.3491 81.981 89.2599 78.0316C95.1707 74.0821 99.7776 68.4685 102.498 61.9008C105.218 55.3331 105.93 48.1062 104.543 41.1339C103.156 34.1617 99.7332 27.7572 94.7065 22.7305C89.6798 17.7038 83.2754 14.2805 76.3031 12.8937C69.3309 11.5068 62.1039 12.2186 55.5362 14.939C48.9685 17.6595 43.3549 22.2664 39.4055 28.1772C35.456 34.088 33.348 41.0371 33.348 48.146V77.401H27.834V48.146C27.8338 39.9468 30.265 31.9316 34.8201 25.1141C39.3751 18.2966 45.8495 12.9829 53.4245 9.84503C60.9996 6.70714 69.335 5.88602 77.3767 7.48541C85.4184 9.08481 92.8052 13.0329 98.6031 18.8305C104.401 24.6281 108.349 32.0148 109.949 40.0564C111.549 48.098 110.728 56.4334 107.591 64.0086C104.453 71.5838 99.1398 78.0585 92.3226 82.6139C85.5053 87.1693 77.4902 89.6008 69.291 89.601H63.502V96.289H69.293C82.0237 96.231 94.2132 91.1331 103.195 82.1105C112.176 73.088 117.219 60.8754 117.219 48.1445C117.219 35.4137 112.176 23.2011 103.195 14.1785C94.2132 5.15598 82.0237 0.0580203 69.293 0H69.297ZM8.897 83.3C8.39234 83.3004 7.89889 83.1511 7.4791 82.871C7.0593 82.5909 6.73202 82.1925 6.53867 81.7264C6.34531 81.2602 6.29457 80.7472 6.39285 80.2522C6.49114 79.7572 6.73404 79.3025 7.09082 78.9456C7.4476 78.5886 7.90224 78.3456 8.3972 78.2471C8.89217 78.1486 9.40523 78.1991 9.87146 78.3923C10.3377 78.5854 10.7361 78.9126 11.0164 79.3323C11.2967 79.752 11.4462 80.2453 11.446 80.75C11.4449 81.4248 11.1767 82.0718 10.7 82.5495C10.2233 83.0272 9.57684 83.2966 8.90199 83.299L8.897 83.3ZM36.676 140.531C36.1716 140.531 35.6784 140.382 35.2589 140.102C34.8394 139.822 34.5124 139.423 34.3193 138.957C34.1262 138.491 34.0756 137.979 34.1739 137.484C34.2723 136.989 34.5152 136.535 34.8719 136.178C35.2286 135.821 35.683 135.578 36.1777 135.48C36.6725 135.382 37.1853 135.432 37.6513 135.625C38.1173 135.818 38.5155 136.145 38.7957 136.565C39.0758 136.984 39.2252 137.478 39.225 137.982C39.2239 138.657 38.9554 139.304 38.4783 139.782C38.0011 140.259 37.3541 140.528 36.679 140.53L36.676 140.531ZM40.038 48.148C40.038 42.3619 41.7538 36.7058 44.9684 31.8948C48.1829 27.0839 52.7519 23.3342 58.0976 21.1199C63.4432 18.9057 69.3255 18.3263 75.0004 19.4551C80.6753 20.5839 85.888 23.3702 89.9794 27.4616C94.0708 31.553 96.8571 36.7658 97.9859 42.4407C99.1147 48.1156 98.5353 53.9978 96.3211 59.3434C94.1068 64.6891 90.3572 69.2581 85.5462 72.4727C80.7353 75.6872 75.0791 77.403 69.293 77.403H52.244V48.147C52.244 44.7743 53.2441 41.4772 55.1179 38.6729C56.9917 35.8685 59.6551 33.6828 62.7711 32.3921C65.8871 31.1014 69.3159 30.7637 72.6239 31.4217C75.9318 32.0797 78.9704 33.7038 81.3553 36.0887C83.7402 38.4736 85.3643 41.5122 86.0223 44.8201C86.6803 48.1281 86.3426 51.5569 85.0519 54.6729C83.7612 57.7889 81.5755 60.4522 78.7711 62.326C75.9668 64.1999 72.6698 65.2 69.297 65.2H57.702V71.887H69.293C73.9886 71.887 78.5787 70.4946 82.4829 67.8859C86.3871 65.2771 89.43 61.5692 91.2269 57.2311C93.0238 52.8929 93.4939 48.1194 92.5777 43.514C91.6616 38.9087 89.4004 34.6784 86.0801 31.3582C82.7597 28.038 78.5294 25.777 73.924 24.8611C69.3187 23.9451 64.5451 24.4154 60.207 26.2125C55.8689 28.0095 52.1612 31.0527 49.5526 34.957C46.944 38.8613 45.5518 43.4515 45.552 48.147V77.401H40.037L40.038 48.148Z" fill="#FFB448"/>
</svg>
