<svg width="117" height="146" viewBox="0 0 117 146" fill="none" xmlns="http://www.w3.org/2000/svg">
<path d="M68.297 0C55.5325 0.0145574 43.2949 5.0918 34.2691 14.1178C25.2433 23.1438 20.1663 35.3814 20.152 48.146V77.401H15.045C14.2841 75.7724 12.9905 74.452 11.3778 73.6578C9.76511 72.8636 7.9298 72.6432 6.17493 73.0329C4.42005 73.4226 2.85058 74.3992 1.72566 75.8014C0.600745 77.2035 -0.0123291 78.9474 -0.0123291 80.745C-0.0123291 82.5426 0.600745 84.2865 1.72566 85.6887C2.85058 87.0908 4.42005 88.0674 6.17493 88.4571C7.9298 88.8468 9.76511 88.6264 11.3778 87.8323C12.9905 87.0381 14.2841 85.7176 15.045 84.089H20.145V116.928H26.833V84.089H32.347V130.823C30.7163 131.58 29.3924 132.87 28.5939 134.48C27.7954 136.091 27.5701 137.925 27.9551 139.681C28.3401 141.437 29.3124 143.009 30.7115 144.138C32.1107 145.267 33.8529 145.884 35.6505 145.889C37.4481 145.894 39.1936 145.286 40.5988 144.165C42.004 143.043 42.9848 141.477 43.3792 139.723C43.7737 137.969 43.5582 136.133 42.7684 134.518C41.9785 132.903 40.6616 131.606 39.035 130.841V84.089H44.55V131.271L51.238 127.821V84.089H68.291C75.3999 84.089 82.3491 81.981 88.2599 78.0316C94.1707 74.0821 98.7776 68.4685 101.498 61.9008C104.218 55.3331 104.93 48.1062 103.543 41.1339C102.156 34.1617 98.7333 27.7572 93.7065 22.7305C88.6798 17.7038 82.2754 14.2805 75.3031 12.8937C68.3309 11.5068 61.104 12.2186 54.5362 14.939C47.9685 17.6595 42.355 22.2664 38.4055 28.1772C34.456 34.088 32.348 41.0371 32.348 48.146V77.401H26.834V48.146C26.8338 39.9468 29.265 31.9317 33.8201 25.1141C38.3751 18.2966 44.8495 12.9829 52.4246 9.84503C59.9996 6.70714 68.335 5.88602 76.3767 7.48541C84.4184 9.08481 91.8053 13.0329 97.6031 18.8305C103.401 24.6281 107.349 32.0148 108.949 40.0564C110.549 48.098 109.728 56.4334 106.591 64.0086C103.453 71.5838 98.1399 78.0585 91.3226 82.6139C84.5053 87.1693 76.4902 89.6008 68.291 89.601H62.502V96.289H68.293C81.0237 96.231 93.2132 91.1331 102.195 82.1105C111.176 73.088 116.219 60.8754 116.219 48.1445C116.219 35.4137 111.176 23.2011 102.195 14.1785C93.2132 5.15598 81.0237 0.0580203 68.293 0H68.297ZM7.89702 83.3C7.39235 83.3004 6.89891 83.1511 6.47911 82.871C6.05932 82.5909 5.73204 82.1925 5.53868 81.7264C5.34532 81.2602 5.29458 80.7472 5.39287 80.2522C5.49115 79.7572 5.73405 79.3025 6.09084 78.9456C6.44762 78.5886 6.90225 78.3456 7.39722 78.2471C7.89218 78.1486 8.40524 78.1991 8.87148 78.3923C9.33771 78.5854 9.73616 78.9126 10.0164 79.3323C10.2967 79.752 10.4462 80.2453 10.446 80.75C10.445 81.4249 10.1767 82.0718 9.70003 82.5495C9.22331 83.0272 8.57685 83.2966 7.90201 83.299L7.89702 83.3ZM35.676 140.531C35.1716 140.531 34.6784 140.382 34.2589 140.102C33.8394 139.822 33.5124 139.423 33.3193 138.957C33.1262 138.491 33.0756 137.979 33.174 137.484C33.2723 136.989 33.5152 136.535 33.8719 136.178C34.2286 135.821 34.683 135.578 35.1778 135.48C35.6725 135.382 36.1853 135.432 36.6513 135.625C37.1173 135.818 37.5156 136.145 37.7957 136.565C38.0758 136.984 38.2252 137.478 38.225 137.982C38.2239 138.657 37.9555 139.304 37.4783 139.782C37.0011 140.259 36.3541 140.528 35.679 140.53L35.676 140.531ZM39.038 48.148C39.038 42.3619 40.7538 36.7058 43.9684 31.8948C47.183 27.0839 51.7519 23.3342 57.0976 21.1199C62.4432 18.9057 68.3255 18.3263 74.0004 19.4551C79.6753 20.584 84.888 23.3702 88.9794 27.4616C93.0708 31.553 95.8571 36.7658 96.9859 42.4407C98.1147 48.1156 97.5353 53.9978 95.3211 59.3434C93.1069 64.6891 89.3572 69.2581 84.5462 72.4727C79.7353 75.6872 74.0791 77.403 68.293 77.403H51.244V48.147C51.244 44.7743 52.2441 41.4772 54.118 38.6729C55.9918 35.8685 58.6551 33.6828 61.7711 32.3921C64.8871 31.1014 68.3159 30.7637 71.6239 31.4217C74.9319 32.0797 77.9704 33.7038 80.3553 36.0887C82.7402 38.4736 84.3643 41.5122 85.0223 44.8201C85.6803 48.1281 85.3426 51.5569 84.0519 54.6729C82.7612 57.7889 80.5755 60.4522 77.7711 62.326C74.9668 64.1999 71.6698 65.2 68.297 65.2H56.702V71.887H68.293C72.9886 71.887 77.5787 70.4946 81.4829 67.8859C85.3871 65.2771 88.4301 61.5692 90.2269 57.2311C92.0238 52.8929 92.4939 48.1194 91.5778 43.514C90.6616 38.9087 88.4004 34.6784 85.0801 31.3582C81.7597 28.038 77.5294 25.777 72.924 24.8611C68.3187 23.9451 63.5451 24.4154 59.207 26.2125C54.8689 28.0095 51.1612 31.0527 48.5526 34.957C45.944 38.8613 44.5518 43.4515 44.552 48.147V77.401H39.037L39.038 48.148Z" fill="white"/>
</svg>
