<svg id="Component_9_2" data-name="Component 9 – 2" xmlns="http://www.w3.org/2000/svg" width="390.913" height="152" viewBox="0 0 390.913 152">
  <text id="erfeth" transform="translate(98.913 132)" fill="#ffb448" font-size="100" font-family="GoshaSans-Bold, Gosha Sans" font-weight="700"><tspan x="0" y="0">erfeth</tspan></text>
  <path id="Path_20" data-name="Path 20" d="M303.795,568.683a48.2,48.2,0,0,0-48.145,48.146v29.255h-5.107a7.9,7.9,0,1,0,0,6.688h5.1v32.839h6.688V652.772h5.514v46.734a7.9,7.9,0,1,0,6.688.018V652.772h5.515v47.182l6.688-3.45V652.772h17.053a35.943,35.943,0,1,0-35.943-35.943v29.255h-5.514V616.829a41.456,41.456,0,1,1,41.457,41.455H298v6.688h5.791a48.145,48.145,0,0,0,0-96.289Zm-60.4,83.3a2.551,2.551,0,1,1,2.549-2.55A2.553,2.553,0,0,1,243.4,651.982Zm27.779,57.231a2.55,2.55,0,1,1,2.549-2.549A2.552,2.552,0,0,1,271.177,709.213Zm3.362-92.383a29.255,29.255,0,1,1,29.255,29.255H286.742V616.83a17.053,17.053,0,1,1,17.053,17.053H292.2v6.687h11.591a23.741,23.741,0,1,0-23.741-23.74v29.254h-5.515Z" transform="translate(-235.498 -568.683)" fill="#ffb448"/>
</svg>
