<svg width="262" height="41" viewBox="0 0 262 41" fill="none" xmlns="http://www.w3.org/2000/svg">
<path d="M29.3391 6.87153C27.2075 5.34667 24.6251 4.58193 22.0065 4.7001C17.7184 4.7001 13.1016 6.34296 8.17038 9.58581L8.04173 9.68582L7.54146 10.0001L7.15554 10.2572C6.16072 10.9396 5.20622 11.679 4.29684 12.4715C2.20998 14.5001 -0.162738 17.8572 0.00878402 20.7287C0.0196065 21.2934 0.153027 21.849 0.399818 22.3571C0.646609 22.8652 1.00088 23.3137 1.43813 23.6715C2.34485 24.3456 3.45321 24.6931 4.58271 24.6572C7.14325 24.434 9.60381 23.5585 11.7295 22.1144L12.0868 21.8858L13.073 21.2287L13.4018 21.0001C16.0435 19.0518 18.9261 17.4528 21.9779 16.243C22.6722 15.9767 23.4071 15.8318 24.1505 15.8144C24.4637 15.8154 24.7756 15.8537 25.0796 15.9287C25.5316 16.0104 25.9573 16.1997 26.3205 16.4808C26.6838 16.7618 26.974 17.1261 27.1664 17.543C27.5135 18.5117 27.6534 19.5424 27.5771 20.5685C27.5007 21.5946 27.2099 22.5933 26.7233 23.5001C25.0682 26.8178 22.7186 29.741 19.8339 32.0715C18.4411 33.2972 16.9278 34.3789 15.3171 35.3001H15.1885C14.5207 35.6967 13.823 36.0406 13.1016 36.3287H13.0016C12.806 36.4123 12.6056 36.4839 12.4013 36.543C9.25668 37.4001 11.172 34.6144 11.172 34.6144C11.8914 33.8506 12.6602 33.1348 13.4733 32.4715C13.9021 32.0858 14.3452 31.6715 14.7883 31.2144L14.8883 31.1144C15.2577 30.8309 15.5613 30.4709 15.7784 30.0591C15.9955 29.6473 16.121 29.1934 16.1462 28.7287C16.0304 28.0578 15.6789 27.4503 15.1548 27.0156C14.6307 26.5808 13.9685 26.3473 13.2875 26.3572H13.1445C11.8955 26.4579 10.7124 26.959 9.77125 27.7858C8.88685 28.5166 8.12032 29.379 7.49858 30.343C6.61238 31.6715 4.89716 35.0715 6.61238 37.7715C6.98175 38.3232 7.4918 38.7664 8.08984 39.0552C8.68788 39.344 9.35222 39.468 10.0142 39.4144C11.3533 39.356 12.6727 39.071 13.9164 38.5715C15.868 37.8237 17.7324 36.8657 19.4765 35.7144L19.9339 35.4287C21.8251 34.2412 23.6176 32.9036 25.294 31.4287C28.8523 28.5649 31.5239 24.7504 32.9982 20.4287C33.9121 17.8478 34.0414 15.0543 33.3698 12.4001C32.6936 10.1531 31.272 8.20329 29.3391 6.87153Z" fill="#9999A5"/>
<path d="M155.122 34.9858C152.177 34.7572 151.577 33.4715 151.577 31.3144V3.45724L144.43 4.65724V30.8572C144.43 37.0572 147.804 39.7287 153.45 39.7287C154.361 39.7046 155.269 39.6091 156.165 39.443V35.0001C155.818 35.0141 155.469 35.0094 155.122 34.9858Z" fill="#9999A5"/>
<path d="M129.136 16.243C132.281 16.243 132.738 19.6572 132.738 21.7715H125.091C125.248 19.043 126.335 16.243 129.136 16.243ZM130.666 34.9715C129.91 35.0187 129.154 34.9042 128.446 34.6356C127.739 34.3671 127.097 33.9507 126.563 33.4144C125.291 31.9858 124.72 29.2001 124.877 26.2001H140.128V25.5001C139.999 15.5001 136.598 10.9715 129.136 10.9715C120.818 10.9715 117.573 18.6287 117.516 25.8144C117.432 28.0052 117.824 30.1882 118.666 32.2129C119.507 34.2377 120.778 36.0561 122.39 37.543C124.546 39.209 127.213 40.0773 129.937 40.0001C131.641 40.0037 133.337 39.7534 134.968 39.2572C136.856 38.6636 138.648 37.7973 140.285 36.6858L138.284 32.5715C136.041 34.1121 133.388 34.9478 130.666 34.9715Z" fill="#9999A5"/>
<path d="M71.5192 39.4144H78.5945V11.2572L71.5192 12.4144V39.4144Z" fill="#9999A5"/>
<path d="M110.355 3.48581L103.108 4.65724V30.9858C103.108 36.8858 106.553 39.6715 112.327 39.6715C113.233 39.6625 114.137 39.5764 115.029 39.4144V35.0287C114.943 35.0287 114.4 35.0287 113.999 35.0287C110.955 34.9287 110.355 33.243 110.355 31.3144V16.4715H115.029V11.2715H110.355V3.48581Z" fill="#9999A5"/>
<path d="M59.0267 34.1001C57.9131 34.7467 56.6405 35.0684 55.3532 35.0287C52.4945 35.0287 51.2224 32.8429 51.2796 30.2858C51.272 29.6581 51.3976 29.0359 51.6481 28.4602C51.8986 27.8845 52.2683 27.3684 52.7329 26.946C53.1975 26.5235 53.7464 26.2042 54.3434 26.0091C54.9404 25.8141 55.572 25.7477 56.1966 25.8144H59.0553L59.0267 34.1001ZM56.168 10.7572C52.8373 10.8276 49.5704 11.6842 46.6342 13.2572L45.8481 13.6715L47.7348 17.9572L48.8068 17.4429C50.8905 16.4261 53.1774 15.8937 55.4962 15.8858C58.0547 15.9858 59.1124 17.1715 59.1124 19.6144V21.0429H54.8387C48.0921 21.0429 43.9041 24.6144 43.7898 30.1572C43.8091 31.5016 44.0995 32.8282 44.6436 34.0579C45.1877 35.2875 45.9743 36.3948 46.9564 37.3137C47.9384 38.2325 49.0958 38.944 50.3593 39.4056C51.6227 39.8672 52.9664 40.0694 54.3098 40.0001C56.4876 40.0855 58.6609 39.7394 60.7043 38.9818C62.7478 38.2242 64.6211 37.0701 66.2163 35.5858V20.4858C66.2163 13.1572 60.9277 10.7572 56.1108 10.7572H56.168Z" fill="#9999A5"/>
<path d="M75.1355 9.07051e-05C74.5404 -0.00367321 73.9505 0.109738 73.3993 0.33385C72.8482 0.557961 72.3465 0.888383 71.9231 1.30625C71.4997 1.72411 71.1628 2.22124 70.9317 2.76924C70.7005 3.31724 70.5796 3.90539 70.5758 4.50009C70.5413 5.11141 70.632 5.72334 70.8423 6.29842C71.0527 6.8735 71.3782 7.39963 71.799 7.84461C72.2198 8.28959 72.7271 8.64406 73.2897 8.88632C73.8523 9.12858 74.4585 9.25354 75.0711 9.25354C75.6838 9.25354 76.29 9.12858 76.8526 8.88632C77.4152 8.64406 77.9225 8.28959 78.3433 7.84461C78.7641 7.39963 79.0896 6.8735 79.3 6.29842C79.5103 5.72334 79.601 5.11141 79.5665 4.50009C79.5754 3.93227 79.4713 3.36834 79.2603 2.84106C79.0493 2.31379 78.7355 1.83369 78.3372 1.42866C77.9299 0.984033 77.4355 0.627795 76.8848 0.382051C76.334 0.136306 75.7386 0.00629767 75.1355 9.07051e-05Z" fill="#9999A5"/>
<path d="M84.2547 16.3001V39.4429H91.4015V17.6572C92.7804 16.5511 94.4799 15.9197 96.247 15.8572C97.2097 15.8048 98.1747 15.9061 99.1057 16.1572L101.092 11.6858C99.5794 11.0842 97.9607 10.7927 96.3327 10.8287C94.05 10.854 91.7975 11.3535 89.7183 12.2955C87.639 13.2374 85.7784 14.6011 84.2547 16.3001Z" fill="#9999A5"/>
<path d="M248.816 4.28583L245.957 4.60011V16.3144C245.915 16.7614 245.976 17.2121 246.134 17.6323C246.292 18.0525 246.544 18.4311 246.871 18.7395C247.197 19.0479 247.59 19.278 248.018 19.4122C248.447 19.5465 248.901 19.5814 249.345 19.5144H249.688C250.25 19.5232 250.811 19.4657 251.36 19.343H251.446V17.0573H251.332C250.856 17.1019 250.378 17.1019 249.902 17.0573C248.844 16.9858 248.701 16.3715 248.701 15.7715V10.643H251.389V8.08583H248.701L248.816 4.28583Z" fill="#9999A5"/>
<path d="M169.401 6.14295H172.06C173.06 6.14295 174.747 6.44295 174.747 8.50009C174.747 10.0858 173.718 10.9287 171.774 10.9287H169.401V6.14295ZM169.401 13.7001H171.931C175.633 13.7001 177.749 11.8287 177.749 8.54295C177.749 5.25724 175.747 3.37152 172.26 3.37152H166.542V19.4001H169.401V13.7001Z" fill="#9999A5"/>
<path d="M191.099 23.4001H194.086L200.204 8.22868L200.261 8.07153H197.273L194.501 15.043L191.556 8.12868L191.527 8.07153H188.497L193.071 18.4715L191.099 23.4001Z" fill="#9999A5"/>
<path d="M214.526 7.94295C213.838 7.93509 213.156 8.07079 212.523 8.34137C211.891 8.61195 211.322 9.01147 210.852 9.51438C210.475 8.98977 209.969 8.57014 209.384 8.29517C208.799 8.02019 208.153 7.89897 207.508 7.94295C206.463 7.96284 205.455 8.33541 204.649 9.0001V8.07152H201.79V19.4001H204.649V13.7715C204.649 11.8715 205.621 10.6001 207.079 10.6001C208.008 10.6001 208.966 10.9287 208.966 13.3001V19.4001H211.753V13.7715C211.753 11.9144 212.71 10.6001 214.083 10.6001C214.969 10.6001 215.926 10.8144 215.926 13.3144V19.4001H218.785V12.8572C218.671 9.6001 217.27 7.94295 214.526 7.94295Z" fill="#9999A5"/>
<path d="M239.668 7.94296C238.509 7.93521 237.381 8.31766 236.466 9.02867V8.07153H233.608V19.4001H236.466V13.6858C236.466 11.743 237.495 10.543 239.139 10.543C240.111 10.543 241.097 10.8572 241.097 13.2001V19.3572H243.956V12.8572C243.885 9.71438 242.355 7.94296 239.668 7.94296Z" fill="#9999A5"/>
<path d="M258.535 12.5287L258.049 12.343C257.006 11.943 256.449 11.6572 256.449 11.243C256.449 10.8287 256.977 10.5858 257.463 10.5858C258.344 10.5932 259.191 10.9295 259.836 11.5287L260.308 11.9287L261.737 9.65724L261.351 9.34295C260.278 8.40943 258.9 7.9012 257.478 7.91438C257.002 7.86733 256.521 7.91588 256.064 8.05717C255.607 8.19845 255.183 8.42962 254.817 8.73709C254.451 9.04455 254.15 9.4221 253.932 9.84753C253.714 10.273 253.583 10.7377 253.547 11.2144C253.547 13.4858 255.319 14.3001 256.992 14.8858L257.235 14.9715L257.564 15.0858C258.02 15.1937 258.452 15.3876 258.836 15.6572C258.939 15.7338 259.014 15.8432 259.048 15.9677C259.082 16.0922 259.072 16.2245 259.021 16.343C258.969 16.479 258.874 16.5944 258.75 16.6715C258.522 16.8124 258.26 16.8867 257.992 16.8858C257.418 16.9241 256.842 16.8363 256.306 16.6287C255.786 16.4338 255.303 16.1538 254.876 15.8001L254.405 15.3572L252.89 17.5858L253.261 17.9001C254.462 18.9721 256.025 19.549 257.635 19.5144C260.765 19.5144 261.923 17.643 261.923 16.0287C261.98 13.843 260.465 13.2572 258.535 12.5287Z" fill="#9999A5"/>
<path d="M181.193 15.9001C181.178 15.7428 181.199 15.5842 181.253 15.4359C181.308 15.2875 181.395 15.1533 181.508 15.043C181.908 14.7123 182.418 14.5441 182.937 14.5715H184.895V17.043C184.427 17.156 183.948 17.2183 183.466 17.2287H183.294C182.732 17.2248 182.181 17.0613 181.708 16.7572C181.564 16.6612 181.443 16.5345 181.355 16.3863C181.266 16.2381 181.21 16.0721 181.193 15.9001ZM179.564 18.4572V18.5287L179.678 18.6144H179.764H179.85L179.993 18.7001C180.263 18.8562 180.551 18.9808 180.85 19.0715C181.464 19.256 182.097 19.371 182.737 19.4144H183.38C184.626 19.3693 185.861 19.1629 187.054 18.8001H187.254V11.4287C187.261 11.3765 187.261 11.3237 187.254 11.2715V11.1001V10.7572V10.6001C187.262 10.5624 187.262 10.5235 187.254 10.4858V10.4001V10.3144L187.282 10.0001V9.91439V10.0001C187.093 9.6151 186.831 9.27058 186.51 8.98582C186.121 8.64188 185.67 8.37522 185.181 8.20011C184.818 8.08116 184.445 7.9951 184.066 7.94296H183.995H183.28C181.977 7.95083 180.699 8.30588 179.578 8.97153L179.435 9.07153L180.593 10.8715H180.736C181.432 10.5145 182.198 10.3146 182.98 10.2858C184.166 10.2858 184.81 10.9001 184.895 11.3287V11.4144V12.2858H182.651C180.05 12.2858 178.506 13.7144 178.506 16.0144C178.5 16.4314 178.576 16.8456 178.73 17.233C178.885 17.6204 179.115 17.9734 179.407 18.2715C179.454 18.3378 179.506 18.3999 179.564 18.4572Z" fill="#9999A5"/>
<path d="M223.674 12.4144C223.777 11.9008 224.045 11.435 224.437 11.0871C224.829 10.7392 225.324 10.5281 225.846 10.4858C226.48 10.3755 227.131 10.5148 227.664 10.8744C228.197 11.234 228.57 11.7859 228.705 12.4144H223.674ZM226.218 7.94295C225.651 7.95368 225.089 8.04016 224.545 8.20009C223.717 8.44452 222.962 8.88909 222.346 9.49453C221.73 10.1 221.273 10.8477 221.015 11.6715C220.697 12.6011 220.602 13.5925 220.739 14.5653C220.876 15.5382 221.239 16.4653 221.801 17.2715C222.316 17.9925 223.002 18.5738 223.799 18.9629C224.595 19.352 225.475 19.5366 226.361 19.5001C226.839 19.4972 227.317 19.459 227.79 19.3858C229.054 19.1902 230.203 18.5399 231.02 17.5572H231.092L229.305 15.9001L229.234 15.9715C228.891 16.3234 228.483 16.6042 228.031 16.7979C227.58 16.9916 227.095 17.0943 226.604 17.1001C225.911 17.1526 225.222 16.951 224.667 16.533C224.112 16.1149 223.728 15.509 223.588 14.8287V14.6858H231.449V14.5858C231.622 13.531 231.549 12.4504 231.235 11.4287C230.857 10.4038 230.173 9.51971 229.276 8.89624C228.378 8.27276 227.311 7.93997 226.218 7.94295Z" fill="#9999A5"/>
<path d="M171.888 29.828H169.401V26.1851H171.531C174.29 26.1851 174.29 27.5137 174.29 27.9565C174.29 29.6994 172.417 29.828 171.888 29.828ZM169.401 32.5565H172.031C173.146 32.5565 174.99 32.8422 174.99 34.6851C174.99 36.528 173.089 36.6708 171.96 36.6708H169.401V32.5565ZM175.676 30.928C176.191 30.5425 176.605 30.0388 176.884 29.4594C177.162 28.88 177.297 28.2419 177.277 27.5994C177.277 24.8994 175.362 23.4137 171.903 23.4137H166.471V39.4422H172.417C175.876 39.4422 177.963 37.728 177.963 34.8565C177.999 34.0514 177.803 33.2529 177.397 32.5563C176.992 31.8597 176.394 31.2945 175.676 30.928Z" fill="#9999A5"/>
<path d="M197.173 27.9858C196.01 27.976 194.877 28.3585 193.957 29.0715V28.1144H191.099V39.443H193.957V33.7287C193.957 31.7858 194.987 30.5858 196.63 30.5858C197.602 30.5858 198.588 30.9001 198.588 33.243V39.4001H201.447V32.8572C201.39 29.7572 199.846 27.9858 197.173 27.9858Z" fill="#9999A5"/>
<path d="M186.11 34.5572V37.0286C185.642 37.1417 185.163 37.204 184.681 37.2144H184.509C183.946 37.217 183.394 37.053 182.923 36.7429C182.789 36.6453 182.678 36.519 182.599 36.3732C182.52 36.2274 182.474 36.0657 182.465 35.9001C182.45 35.7415 182.472 35.5816 182.529 35.4328C182.586 35.2841 182.677 35.1506 182.794 35.0429C183.191 34.7059 183.704 34.5367 184.224 34.5715L186.11 34.5572ZM188.783 31.2144C188.791 31.1767 188.791 31.1377 188.783 31.1001V30.7429L188.669 30.3144V30.2429V30.1286V30.0144C188.477 29.6272 188.215 29.2785 187.897 28.9858C187.511 28.6415 187.058 28.3791 186.568 28.2144C186.204 28.0804 185.824 27.994 185.438 27.9572H184.724C183.419 27.9559 182.139 28.3116 181.022 28.9858L180.879 29.0858L181.951 30.7572V30.9001L182.108 30.8286C182.804 30.4739 183.571 30.2787 184.352 30.2572C185.539 30.2572 186.182 30.8572 186.267 31.3001C186.261 31.3234 186.261 31.3482 186.267 31.3715V31.6001V32.2858H183.852C181.25 32.2858 179.707 33.7144 179.707 36.0144C179.699 36.4282 179.773 36.8396 179.925 37.2246C180.077 37.6096 180.304 37.9606 180.593 38.2572C180.656 38.3366 180.728 38.4085 180.807 38.4715L180.993 38.6144L181.136 38.7144L181.293 38.8001C181.563 38.9587 181.851 39.0834 182.151 39.1715H182.265C182.879 39.3553 183.512 39.4656 184.152 39.5001H184.795C186.041 39.4537 187.276 39.2473 188.469 38.8858H188.655V31.2144H188.783Z" fill="#9999A5"/>
<path d="M217.799 26.0001C217.685 25.9381 217.557 25.9038 217.427 25.9001H208.851C208.65 25.9001 208.458 25.9799 208.316 26.1218C208.173 26.2638 208.094 26.4564 208.094 26.6572C208.094 26.756 208.113 26.8538 208.152 26.9448C208.19 27.0359 208.246 27.1185 208.316 27.1876C208.387 27.2568 208.471 27.3112 208.562 27.3477C208.654 27.3842 208.752 27.402 208.851 27.4001L211.01 27.2858C211.176 27.6463 211.277 28.0331 211.31 28.4287H208.923C208.833 28.4286 208.745 28.4465 208.662 28.4811C208.58 28.5157 208.505 28.5665 208.443 28.6303C208.38 28.6942 208.331 28.7699 208.298 28.853C208.265 28.9362 208.249 29.025 208.251 29.1144C208.244 29.1809 208.244 29.2479 208.251 29.3144C208.294 29.4513 208.379 29.571 208.495 29.6558C208.611 29.7407 208.751 29.7862 208.894 29.7858L211.153 29.6572C210.738 31.2144 208.179 31.0858 208.179 31.0858H206.479V23.4001H203.691V39.4429H206.479V33.8287H207.479L209.823 37.1429L211.381 39.4429H214.883L211.438 34.4715L210.767 33.5001L210.952 33.4287C211.604 33.2192 212.203 32.8735 212.71 32.4144C213.518 31.6671 214.026 30.6515 214.14 29.5572C214.14 29.5572 214.14 29.4572 214.14 29.4144L216.47 29.2572C216.553 29.259 216.635 29.2388 216.708 29.1987C216.781 29.1585 216.841 29.0999 216.884 29.0287C216.925 28.9179 216.925 28.7965 216.884 28.6858C216.847 28.5896 216.78 28.5081 216.692 28.4539C216.604 28.3997 216.501 28.3758 216.398 28.3858H214.154C214.168 28.1813 214.168 27.9761 214.154 27.7715C214.154 27.5429 214.083 27.3001 214.04 27.0715L216.155 26.9429L217.456 26.8715C217.62 26.8552 217.773 26.7789 217.885 26.6572C217.941 26.5726 217.971 26.4731 217.971 26.3715C217.968 26.3013 217.952 26.2323 217.922 26.1685C217.893 26.1048 217.851 26.0475 217.799 26.0001Z" fill="#9999A5"/>
</svg>
