<svg width="276" height="41" viewBox="0 0 276 41" fill="none" xmlns="http://www.w3.org/2000/svg">
<path d="M33.7661 39.4141H29.3458V17.9879H33.7661V39.4141Z" fill="#222222"/>
<path d="M50.4036 24.4958C51.4473 25.3553 51.9384 26.7673 51.9384 28.7319V39.4143H47.7023V29.7756C47.7023 28.9161 47.5795 28.3022 47.3953 27.8724C46.9656 27.0743 46.2289 26.6445 45.0624 26.6445C43.6504 26.6445 42.7295 27.2585 42.1769 28.4249C41.9314 29.0389 41.7472 29.837 41.7472 30.8193V39.4143H37.6339V23.6363H41.6244V25.9692C42.1769 25.1711 42.6681 24.5572 43.0978 24.1888C43.9573 23.5749 45.001 23.2065 46.3517 23.2065C48.0093 23.2065 49.3599 23.6363 50.4036 24.4958Z" fill="#222222"/>
<path d="M53.903 26.7059V23.7591H56.1132V19.3388H60.2265V23.7591H62.805V26.7059H60.2265V35.0554C60.2265 35.7307 60.2879 36.0991 60.4721 36.2832C60.6562 36.4674 61.1474 36.5288 62.0069 36.5288C62.1297 36.5288 62.2525 36.5288 62.4366 36.5288C62.5594 36.5288 62.7436 36.5288 62.8664 36.5288V39.5985L60.9018 39.6598C58.9372 39.7212 57.5866 39.4143 56.9113 38.6162C56.4201 38.125 56.2359 37.3883 56.2359 36.406V26.7059H53.903Z" fill="#222222"/>
<path d="M75.5133 23.9432C76.6184 24.4344 77.5393 25.2325 78.276 26.2762C78.9513 27.1971 79.3197 28.3021 79.5652 29.53C79.688 30.2667 79.7494 31.3104 79.688 32.6611H68.1462C68.2075 34.2573 68.7601 35.3623 69.8038 35.9763C70.4177 36.3446 71.2158 36.5902 72.0753 36.5902C72.9962 36.5902 73.7943 36.3446 74.3468 35.8535C74.6538 35.6079 74.9608 35.2396 75.2063 34.7484H79.4425C79.3197 35.6693 78.8285 36.6516 77.9076 37.6339C76.4956 39.1687 74.531 39.9668 71.9525 39.9668C69.8652 39.9668 67.962 39.2915 66.3658 38.0022C64.7695 36.713 63.9714 34.5642 63.9714 31.6788C63.9714 28.9161 64.7082 26.8287 66.1816 25.3553C67.655 23.8819 69.4968 23.1451 71.8297 23.1451C73.1804 23.1451 74.4082 23.4521 75.5133 23.9432ZM69.374 27.504C68.7601 28.118 68.3917 28.9161 68.2689 29.9598H75.3905C75.3291 28.8547 74.9608 28.0566 74.2855 27.4426C73.6101 26.8901 72.812 26.5831 71.8297 26.5831C70.7247 26.5831 69.9266 26.8901 69.374 27.504Z" fill="#222222"/>
<path d="M90.8616 23.2065C90.923 23.2065 91.0458 23.2065 91.2299 23.2065V27.5041C90.9844 27.5041 90.7388 27.4427 90.5546 27.4427C90.3704 27.4427 90.1863 27.4427 90.0635 27.4427C88.4059 27.4427 87.3008 27.9952 86.6869 29.0389C86.3799 29.6528 86.1957 30.5737 86.1957 31.863V39.4143H82.021V23.5749H85.9502V26.3376C86.5641 25.2939 87.1166 24.5572 87.6078 24.1888C88.4059 23.5135 89.3882 23.2065 90.616 23.2065C90.8002 23.2065 90.8616 23.2065 90.8616 23.2065Z" fill="#222222"/>
<path d="M99.8863 29.7756C100.684 29.6528 101.237 29.53 101.544 29.4072C102.158 29.1617 102.465 28.7933 102.465 28.2408C102.465 27.5654 102.219 27.1357 101.79 26.8901C101.36 26.6445 100.684 26.5218 99.7636 26.5218C98.7813 26.5218 98.0445 26.7673 97.6762 27.2585C97.3692 27.6268 97.185 28.118 97.0623 28.7319H93.0717C93.1331 27.3199 93.5629 26.2148 94.2382 25.2939C95.3433 23.8819 97.2464 23.2065 99.8863 23.2065C101.605 23.2065 103.202 23.5749 104.552 24.2502C105.903 24.9255 106.578 26.2148 106.578 28.118V35.3624C106.578 35.8535 106.578 36.4674 106.578 37.2041C106.578 37.7567 106.701 38.125 106.824 38.3092C106.947 38.4934 107.192 38.6776 107.438 38.8004V39.4143H102.956C102.833 39.1073 102.772 38.8004 102.71 38.4934C102.649 38.1864 102.649 37.8795 102.588 37.5111C102.035 38.125 101.36 38.6776 100.623 39.1073C99.7022 39.5985 98.7199 39.9054 97.5534 39.9054C96.1414 39.9054 94.9135 39.4757 93.9926 38.6776C93.0717 37.8795 92.5806 36.713 92.5806 35.1782C92.5806 33.2136 93.3173 31.8016 94.8521 30.9421C95.7116 30.4509 96.8781 30.1439 98.5357 29.8984L99.8863 29.7756ZM102.403 31.7402C102.158 31.9243 101.851 32.0471 101.605 32.1699C101.36 32.2927 100.991 32.3541 100.5 32.4769L99.5794 32.6611C98.7199 32.8452 98.0445 33.0294 97.6762 33.2136C97.0009 33.582 96.6939 34.1959 96.6939 34.994C96.6939 35.7307 96.8781 36.2219 97.3078 36.5288C97.6762 36.8358 98.1673 37.02 98.7813 37.02C99.7022 37.02 100.5 36.7744 101.298 36.2219C102.035 35.6693 102.465 34.7484 102.465 33.3364V31.7402H102.403Z" fill="#222222"/>
<path d="M119.593 29.2844C119.532 28.6705 119.348 28.1794 118.98 27.6882C118.488 27.0743 117.813 26.7059 116.831 26.7059C115.419 26.7059 114.498 27.3813 113.945 28.7933C113.7 29.53 113.516 30.5123 113.516 31.7402C113.516 32.9066 113.638 33.8275 113.945 34.5642C114.436 35.8535 115.357 36.5288 116.769 36.5288C117.752 36.5288 118.427 36.2832 118.857 35.7307C119.287 35.1782 119.532 34.5028 119.593 33.7047H123.83C123.707 34.994 123.277 36.1605 122.479 37.2655C121.19 39.0459 119.287 39.9668 116.708 39.9668C114.13 39.9668 112.288 39.2301 111.06 37.6953C109.832 36.1605 109.218 34.2573 109.218 31.8016C109.218 29.1003 109.893 26.9515 111.183 25.4781C112.533 23.9433 114.314 23.2065 116.708 23.2065C118.673 23.2065 120.33 23.6363 121.558 24.5572C122.786 25.4781 123.584 27.0129 123.83 29.2844H119.593Z" fill="#222222"/>
<path d="M125.18 26.7059V23.7591H127.39V19.3388H131.504V23.7591H134.082V26.7059H131.504V35.0554C131.504 35.7307 131.565 36.0991 131.749 36.2832C131.933 36.4674 132.425 36.5288 133.284 36.5288C133.407 36.5288 133.53 36.5288 133.714 36.5288C133.837 36.5288 134.021 36.5288 134.144 36.5288V39.5985L132.179 39.6598C130.214 39.7212 128.864 39.4143 128.188 38.6162C127.697 38.125 127.513 37.3883 127.513 36.406V26.7059H125.18Z" fill="#222222"/>
<path d="M140.958 21.7331H136.784V17.9268H140.958V21.7331ZM136.784 23.5749H140.958V39.4143H136.784V23.5749Z" fill="#222222"/>
<path d="M154.403 23.5749H158.824L153.114 39.4143H148.755L143.107 23.5749H147.773L151.088 35.2396L154.403 23.5749Z" fill="#222222"/>
<path d="M170.979 23.9432C172.084 24.4344 173.005 25.2325 173.742 26.2762C174.417 27.1971 174.786 28.3021 175.031 29.53C175.154 30.2667 175.215 31.3104 175.154 32.6611H163.612C163.674 34.2573 164.226 35.3623 165.27 35.9763C165.884 36.3446 166.682 36.5902 167.541 36.5902C168.462 36.5902 169.26 36.3446 169.813 35.8535C170.12 35.6079 170.427 35.2396 170.672 34.7484H174.909C174.786 35.6693 174.295 36.6516 173.374 37.6339C171.962 39.1687 169.997 39.9668 167.419 39.9668C165.331 39.9668 163.428 39.2915 161.832 38.0022C160.236 36.713 159.438 34.5642 159.438 31.6788C159.438 28.9161 160.174 26.8287 161.648 25.3553C163.121 23.8819 164.963 23.1451 167.296 23.1451C168.585 23.1451 169.874 23.4521 170.979 23.9432ZM164.779 27.504C164.165 28.118 163.796 28.9161 163.674 29.9598H170.795C170.734 28.8547 170.365 28.0566 169.69 27.4426C169.015 26.8901 168.217 26.5831 167.234 26.5831C166.191 26.5831 165.331 26.8901 164.779 27.504Z" fill="#222222"/>
<path d="M177.855 18.1109H187.064C189.581 18.1109 191.362 18.8476 192.406 20.3211C193.02 21.1806 193.326 22.2243 193.326 23.3907C193.326 24.7414 192.958 25.8464 192.16 26.7059C191.792 27.1357 191.178 27.5654 190.441 27.9338C191.546 28.3636 192.344 28.7933 192.897 29.3458C193.879 30.2667 194.309 31.556 194.309 33.2136C194.309 34.5642 193.879 35.8535 193.02 36.9586C191.73 38.6162 189.643 39.4757 186.819 39.4757H177.733V18.1109H177.855ZM186.021 27.1357C187.249 27.1357 188.231 26.9515 188.906 26.6446C190.011 26.092 190.502 25.1711 190.502 23.7591C190.502 22.347 189.95 21.4262 188.783 20.935C188.108 20.6894 187.187 20.5053 185.898 20.5053H180.68V27.1357H186.021ZM186.942 36.9586C188.722 36.9586 190.011 36.4674 190.748 35.4237C191.239 34.7484 191.485 34.0117 191.485 33.0908C191.485 31.556 190.809 30.5123 189.397 29.8984C188.661 29.5914 187.678 29.4686 186.45 29.4686H180.68V36.9586H186.942Z" fill="#222222"/>
<path d="M197.44 23.8819H199.895V26.5832C200.08 26.0306 200.571 25.4167 201.369 24.68C202.167 23.9433 203.088 23.5749 204.132 23.5749C204.193 23.5749 204.254 23.5749 204.377 23.5749C204.5 23.5749 204.684 23.5749 204.991 23.6363V26.399C204.807 26.399 204.684 26.3376 204.561 26.3376C204.439 26.3376 204.316 26.3376 204.132 26.3376C202.842 26.3376 201.799 26.7674 201.123 27.6269C200.387 28.4864 200.08 29.4686 200.08 30.5737V39.5371H197.44V23.8819Z" fill="#222222"/>
<path d="M218.375 25.4167C219.725 26.7674 220.462 28.7319 220.462 31.3104C220.462 33.8276 219.848 35.9149 218.62 37.5111C217.392 39.1687 215.551 39.9669 212.972 39.9669C210.823 39.9669 209.166 39.2301 207.938 37.8181C206.71 36.3447 206.035 34.4415 206.035 31.9858C206.035 29.3459 206.71 27.3199 207.999 25.7237C209.289 24.1889 211.069 23.3907 213.279 23.3907C215.305 23.4521 217.024 24.0661 218.375 25.4167ZM216.779 35.7921C217.392 34.5029 217.761 33.0294 217.761 31.4332C217.761 29.9598 217.515 28.7933 217.086 27.8724C216.349 26.4604 215.121 25.7237 213.341 25.7237C211.744 25.7237 210.639 26.3376 209.903 27.5655C209.166 28.7933 208.797 30.2668 208.797 31.9858C208.797 33.6434 209.166 34.994 209.903 36.0991C210.639 37.2042 211.744 37.7567 213.341 37.7567C214.937 37.7567 216.103 37.0814 216.779 35.7921Z" fill="#222222"/>
<path d="M223.409 18.1109H225.926V30.5123L232.618 23.8819H235.933L229.978 29.6528L236.302 39.4143H232.986L228.075 31.4946L225.926 33.582V39.4143H223.409V18.1109Z" fill="#222222"/>
<path d="M247.168 24.3116C248.212 24.8028 249.01 25.4781 249.501 26.3376C249.992 27.1357 250.36 28.0566 250.545 29.1003C250.729 29.837 250.79 30.9421 250.79 32.5383H239.494C239.555 34.1345 239.924 35.3624 240.599 36.3446C241.274 37.3269 242.379 37.7567 243.791 37.7567C245.142 37.7567 246.247 37.3269 247.045 36.406C247.475 35.8535 247.843 35.301 248.028 34.5642H250.606C250.545 35.1168 250.299 35.7921 249.931 36.4674C249.562 37.1428 249.133 37.7567 248.641 38.1864C247.843 38.9845 246.861 39.4757 245.695 39.7827C245.081 39.9668 244.344 40.0282 243.546 40.0282C241.643 40.0282 239.985 39.3529 238.634 37.9409C237.284 36.5288 236.608 34.5643 236.608 32.0471C236.608 29.53 237.284 27.5041 238.634 25.9692C239.985 24.4344 241.765 23.6363 243.914 23.6363C245.081 23.5135 246.124 23.7591 247.168 24.3116ZM248.089 30.3895C247.966 29.2845 247.721 28.3636 247.352 27.6882C246.616 26.399 245.449 25.7851 243.791 25.7851C242.625 25.7851 241.581 26.2148 240.783 27.0743C239.985 27.9338 239.555 29.0389 239.494 30.3895H248.089Z" fill="#222222"/>
<path d="M253.86 23.8819H256.316V26.5832C256.5 26.0306 256.991 25.4167 257.789 24.68C258.587 23.9433 259.508 23.5749 260.552 23.5749C260.613 23.5749 260.675 23.5749 260.797 23.5749C260.92 23.5749 261.104 23.5749 261.411 23.6363V26.399C261.227 26.399 261.104 26.3376 260.982 26.3376C260.859 26.3376 260.736 26.3376 260.552 26.3376C259.263 26.3376 258.219 26.7674 257.544 27.6269C256.807 28.4864 256.5 29.4686 256.5 30.5737V39.5371H253.86V23.8819Z" fill="#222222"/>
<path d="M265.279 34.5642C265.34 35.4237 265.586 36.099 265.954 36.5902C266.63 37.4497 267.796 37.8794 269.454 37.8794C270.436 37.8794 271.295 37.6953 272.094 37.2655C272.83 36.8358 273.199 36.2218 273.199 35.3009C273.199 34.6256 272.892 34.1345 272.278 33.7661C271.909 33.5819 271.111 33.3364 270.006 33.0294L267.919 32.4769C266.568 32.1699 265.586 31.8015 264.911 31.3718C263.744 30.6351 263.192 29.7142 263.192 28.4249C263.192 26.9515 263.744 25.785 264.788 24.8641C265.832 23.9432 267.305 23.5135 269.147 23.5135C271.541 23.5135 273.26 24.1888 274.304 25.6009C274.979 26.4604 275.286 27.4426 275.286 28.4249H272.83C272.769 27.811 272.585 27.3199 272.216 26.8287C271.602 26.1534 270.559 25.785 269.024 25.785C268.042 25.785 267.244 25.9692 266.752 26.3376C266.261 26.7059 265.954 27.1971 265.954 27.811C265.954 28.4863 266.323 29.0389 266.998 29.4072C267.366 29.6528 267.98 29.837 268.717 30.0211L270.497 30.4509C272.401 30.8806 273.69 31.3718 274.365 31.8015C275.409 32.4769 275.9 33.5205 275.9 34.9326C275.9 36.3446 275.347 37.5111 274.304 38.4934C273.26 39.4757 271.602 40.0282 269.454 40.0282C267.121 40.0282 265.463 39.4757 264.481 38.432C263.499 37.3883 263.007 36.099 262.885 34.5028H265.279V34.5642Z" fill="#222222"/>
<path d="M17.4356 39.4143H0V20.1983L17.4356 39.4143Z" fill="url(#paint0_linear)"/>
<path d="M14.9799 30.1439C17.8619 30.1439 20.1983 27.8076 20.1983 24.9255C20.1983 22.0435 17.8619 19.7071 14.9799 19.7071C12.0978 19.7071 9.76147 22.0435 9.76147 24.9255C9.76147 27.8076 12.0978 30.1439 14.9799 30.1439Z" fill="#D81222"/>
<path d="M17.4356 0L0 20.1983V39.4143L17.4356 0Z" fill="#D81222"/>
<defs>
<linearGradient id="paint0_linear" x1="17.44" y1="29.8266" x2="6.23699e-05" y2="29.8266" gradientUnits="userSpaceOnUse">
<stop stop-color="#D81222"/>
<stop offset="1" stop-color="#960B1A"/>
</linearGradient>
</defs>
</svg>
