<svg width="176" height="40" viewBox="0 0 176 40" fill="none" xmlns="http://www.w3.org/2000/svg">
<path d="M69.9531 14.4508C69.4906 13.7571 68.7969 13.2947 68.1031 12.9479C67.2938 12.6011 66.6 12.4855 65.7906 12.4855C64.75 12.4855 63.9406 12.7167 63.1313 13.0635C62.3219 13.4103 61.6281 13.9884 61.05 14.5664C60.4719 15.26 60.0094 15.9537 59.7781 16.8785C59.4313 17.6878 59.3156 18.7282 59.3156 19.6531C59.3156 20.578 59.4313 21.5028 59.7781 22.3121C60.125 23.1213 60.4719 23.815 61.05 24.5086C61.6281 25.0866 62.3219 25.6647 63.1313 26.0115C63.9406 26.3583 64.8656 26.5895 65.9063 26.5895C66.9469 26.5895 67.7563 26.3583 68.5656 26.0115C69.375 25.5491 69.9531 24.971 70.5313 24.2774L72.4969 25.7803C72.3813 26.0115 72.15 26.2427 71.8031 26.5895C71.4563 26.9363 70.9938 27.2832 70.5313 27.63C69.9531 27.9768 69.375 28.3236 68.5656 28.5548C67.6406 28.5548 66.7156 28.6704 65.675 28.6704C64.2875 28.6704 63.0156 28.4392 61.975 27.8612C60.8188 27.2832 59.8938 26.5895 59.0844 25.7803C58.275 24.971 57.6969 23.9306 57.2344 22.8901C56.7719 21.8496 56.6562 20.6936 56.6562 19.6531C56.6562 18.2658 56.8875 16.9941 57.35 15.9537C57.8125 14.7976 58.3906 13.8728 59.2 12.9479C60.0094 12.1387 60.9344 11.445 62.0906 10.9826C63.2469 10.5202 64.4031 10.2889 65.7906 10.2889C66.9469 10.2889 68.1031 10.5202 69.1438 10.9826C70.3 11.445 71.225 12.1387 71.9188 13.0635L69.9531 14.4508Z" fill="#010101"/>
<path d="M80.5906 10.6358H82.7875L90.3031 28.2081H87.5281L85.7937 23.9306H77.4687L75.7344 28.2081H72.9594L80.5906 10.6358ZM84.8687 21.7341L81.6312 13.6416L78.2781 21.7341H84.8687Z" fill="#010101"/>
<path d="M92.8469 24.5086C93.3094 25.2023 93.7719 25.6647 94.4656 25.8959C95.1594 26.2427 95.8531 26.3583 96.5469 26.3583C96.8937 26.3583 97.3562 26.2427 97.7031 26.1271C98.1656 26.0115 98.5125 25.7803 98.8594 25.5491C99.2062 25.3179 99.4375 24.9711 99.6687 24.6242C99.9 24.2774 100.016 23.815 100.016 23.3526C100.016 22.6589 99.7844 22.1965 99.3219 21.8497C98.8594 21.5028 98.3969 21.156 97.7031 20.9248C97.0094 20.6936 96.3156 20.4624 95.6219 20.2312C94.9281 20 94.2344 19.6531 93.5406 19.3063C92.9625 18.9595 92.3844 18.3815 91.9219 17.6878C91.4594 16.9942 91.2281 16.0693 91.2281 15.0289C91.2281 14.5664 91.3437 13.9884 91.575 13.4104C91.8062 12.8323 92.1531 12.2543 92.6156 11.7919C93.0781 11.3294 93.6562 10.867 94.4656 10.6358C95.1594 10.289 96.0844 10.1734 97.125 10.1734C98.05 10.1734 98.975 10.289 99.9 10.5202C100.825 10.7514 101.519 11.3294 102.212 12.1387L100.247 13.8728C99.9 13.4104 99.5531 13.0635 98.975 12.7167C98.3969 12.4855 97.8187 12.2543 97.125 12.2543C96.4312 12.2543 95.9687 12.3699 95.5062 12.4855C95.0437 12.7167 94.6969 12.8323 94.4656 13.1792C94.2344 13.4104 94.0031 13.7572 93.8875 14.104C93.7719 14.4508 93.7719 14.682 93.7719 14.9133C93.7719 15.6069 94.0031 16.1849 94.4656 16.6474C94.9281 16.9942 95.3906 17.341 96.0844 17.5722C96.6625 17.8034 97.3562 18.0346 98.1656 18.2659C98.8594 18.4971 99.5531 18.7283 100.247 19.0751C100.825 19.4219 101.403 19.8844 101.866 20.4624C102.328 21.0404 102.559 21.8497 102.559 23.0057C102.559 23.815 102.444 24.6242 102.097 25.3179C101.75 26.0115 101.287 26.5896 100.825 27.052C100.247 27.5144 99.6687 27.8612 98.8594 28.0924C98.1656 28.3237 97.3562 28.4393 96.4312 28.4393C95.275 28.4393 94.2344 28.208 93.1937 27.8612C92.1531 27.5144 91.3437 26.8208 90.7656 26.0115L92.8469 24.5086Z" fill="#010101"/>
<path d="M111.463 10.6358H113.659L121.175 28.2081H118.4L116.666 23.9306H108.341L106.606 28.2081H103.716L111.463 10.6358ZM115.741 21.7341L112.503 13.6416L109.15 21.7341H115.741Z" fill="#010101"/>
<path d="M131.35 28.6705C129.963 28.6705 128.806 28.4393 127.65 27.9769C126.494 27.5144 125.569 26.8208 124.759 26.0115C123.95 25.2023 123.372 24.1618 122.909 23.1214C122.447 21.9653 122.216 20.8092 122.216 19.5375C122.216 18.2659 122.447 16.9942 122.909 15.9537C123.372 14.7977 123.95 13.8728 124.759 13.0636C125.569 12.2543 126.494 11.5607 127.65 11.0982C128.806 10.6358 129.963 10.4046 131.35 10.4046C132.738 10.4046 133.894 10.6358 135.05 11.0982C136.206 11.5607 137.131 12.2543 137.941 13.0636C138.75 13.8728 139.328 14.9133 139.791 15.9537C140.253 17.1098 140.484 18.2659 140.484 19.5375C140.484 20.8092 140.253 22.0809 139.791 23.1214C139.328 24.2774 138.75 25.2023 137.941 26.0115C137.131 26.8208 136.206 27.5144 135.05 27.9769C133.894 28.4393 132.622 28.6705 131.35 28.6705ZM131.35 26.474C132.391 26.474 133.316 26.2428 134.125 25.8959C134.934 25.5491 135.628 24.9711 136.206 24.393C136.784 23.815 137.247 23.0058 137.594 22.1965C137.941 21.3873 138.056 20.4624 138.056 19.5375C138.056 18.6127 137.941 17.6878 137.594 16.8786C137.247 16.0693 136.784 15.2601 136.206 14.6821C135.628 14.104 134.934 13.526 134.125 13.1792C133.316 12.8323 132.391 12.6011 131.35 12.6011C130.309 12.6011 129.384 12.8323 128.575 13.1792C127.766 13.526 127.072 14.104 126.494 14.6821C125.916 15.2601 125.453 16.0693 125.106 16.8786C124.759 17.6878 124.644 18.6127 124.644 19.5375C124.644 20.4624 124.759 21.3873 125.106 22.1965C125.453 23.0058 125.916 23.815 126.494 24.393C127.072 24.9711 127.766 25.5491 128.575 25.8959C129.384 26.2428 130.309 26.474 131.35 26.474Z" fill="#010101"/>
<path d="M143.722 10.6358H146.844L156.556 25.0867V10.6358H158.984V28.2081H155.978L146.266 13.7572V28.2081H143.837V10.6358H143.722Z" fill="#010101"/>
<path d="M163.262 10.6358H174.594V12.8323H165.691V18.0346H174.016V20.2312H165.691V25.8959H175.056V28.0924H163.262V10.6358Z" fill="#010101"/>
<path d="M29.8312 36.6474C34.9399 36.6474 39.0812 32.5067 39.0812 27.3988C39.0812 22.291 34.9399 18.1503 29.8312 18.1503C24.7226 18.1503 20.5812 22.291 20.5812 27.3988C20.5812 32.5067 24.7226 36.6474 29.8312 36.6474Z" fill="#304E91"/>
<path d="M20.8125 40H0V0H40.0062V16.185H37.4625V2.54335H2.54375V37.4566H20.8125V40Z" fill="#010101"/>
<path d="M29.8312 37.6878C24.1656 37.6878 19.425 33.0635 19.425 27.2832C19.425 21.6185 24.05 16.8786 29.8312 16.8786C35.6125 16.8786 40.2375 21.5028 40.2375 27.2832C40.2375 33.0635 35.6125 37.6878 29.8312 37.6878ZM29.8312 19.5375C25.5531 19.5375 22.0844 23.0057 22.0844 27.2832C22.0844 31.5606 25.5531 35.0289 29.8312 35.0289C34.1094 35.0289 37.5781 31.5606 37.5781 27.2832C37.6937 23.1213 34.1094 19.5375 29.8312 19.5375Z" fill="#010101"/>
</svg>
