<svg width="196" height="41" viewBox="0 0 196 41" fill="none" xmlns="http://www.w3.org/2000/svg">
<path d="M72.8019 28.6561C70.5031 30.9268 67.5367 31.9806 64.3137 31.9806C56.0205 31.9806 52.5124 26.258 52.4803 20.4377C52.447 14.589 56.245 8.64258 64.3137 8.64258C67.3454 8.64258 70.2143 9.79402 72.5131 12.061L69.7047 14.7819C68.2376 13.3411 66.2621 12.6708 64.3137 12.6708C58.9227 12.6708 56.5955 16.6977 56.6288 20.439C56.6572 24.1493 58.7956 28.0204 64.3137 28.0204C66.2621 28.0204 68.4621 27.219 69.9293 25.7485L72.8019 28.6561Z" fill="#010101"/>
<path d="M82.2439 9.09039V27.5716H93.7268V31.4724H78.0338V9.09039H82.2439Z" fill="#010101"/>
<path d="M99.9174 31.4724V9.09039H104.098V31.4761L99.9174 31.4724Z" fill="#010101"/>
<path d="M125.92 9.05695H130.129V31.4723H127.513V31.5008L115.773 16.3811V31.4698H111.563V9.09034H114.974L125.92 22.967V9.05695Z" fill="#010101"/>
<path d="M137.212 31.4724V9.09039H141.392V31.4761L137.212 31.4724Z" fill="#010101"/>
<path d="M166.466 9.22025L156.549 19.9295L167.302 31.2151V31.4724H162.101L152.753 21.5596V31.4724H148.54V9.09039H152.749V18.5542L161.237 9.09039H166.469L166.466 9.22025Z" fill="#010101"/>
<path d="M190.553 9.22025L180.631 19.9295L191.385 31.2151V31.4724H186.185L176.837 21.5596V31.4724H172.628V9.09039H176.837V18.5542L185.321 9.09039H190.553V9.22025Z" fill="#010101"/>
<path d="M39.9609 4.88156C39.9609 5.84705 39.6753 6.79085 39.1401 7.59362C38.605 8.39638 37.8443 9.02207 36.9544 9.39154C36.0644 9.76101 35.0852 9.85769 34.1404 9.66933C33.1957 9.48097 32.3279 9.01605 31.6468 8.33335C30.9656 7.65065 30.5018 6.78084 30.3139 5.83391C30.1259 4.88698 30.2224 3.90546 30.591 3.01347C30.9596 2.12148 31.5839 1.35908 32.3848 0.822692C33.1857 0.286299 34.1273 0 35.0906 0C36.3823 0 37.6211 0.514306 38.5344 1.42978C39.4478 2.34525 39.9609 3.58689 39.9609 4.88156Z" fill="#27A84A"/>
<path d="M34.1651 13.7579C32.7079 13.6763 31.2444 13.7319 29.7822 13.7171C29.4619 13.7244 29.1416 13.7003 28.8259 13.6453C27.2761 13.3238 26.2976 12.0882 26.284 10.4421C26.2729 9.10883 26.284 7.77435 26.284 6.43987C26.2705 3.76472 24.8317 1.33197 22.3355 0.477361C20.7412 -0.0668208 18.3153 0.180535 17.628 0.45881C16.4534 0.931526 15.4459 1.74439 14.7342 2.79363C14.0226 3.84286 13.6391 5.08086 13.6326 6.34958C13.6326 7.68283 13.6202 9.01731 13.6326 10.3518C13.6807 15.2519 15.7303 19.0884 19.7294 21.8996C20.3402 22.3287 20.7857 22.9533 21.2101 23.5668C22.4144 25.2846 23.0758 27.1893 23.103 29.2955C23.1235 30.8184 23.1235 32.3438 23.103 33.8716C23.0749 34.6915 22.7287 35.468 22.138 36.0359C21.5473 36.6038 20.7589 36.9182 19.9404 36.9122C19.122 36.9063 18.3381 36.5804 17.7558 36.004C17.1734 35.4275 16.8385 34.646 16.8223 33.8258C16.8124 32.4431 16.8223 31.0616 16.8223 29.6802C16.8223 26.0848 14.0793 23.2922 10.4935 23.2489C9.13615 23.2328 7.77883 23.2563 6.42768 23.2427C4.71252 23.2254 3.5045 22.2211 3.18492 20.5738C2.86533 18.9264 4.1116 17.1899 5.78727 16.9636C6.6868 16.8399 7.59127 16.9364 8.49327 16.9141C8.92885 16.9042 9.36689 16.9055 9.8037 16.9141H10.5144V13.7443H9.80494C8.47723 13.7443 7.14953 13.6948 5.82799 13.7678C2.94553 13.9298 0.638089 16.1177 0.0729504 18.8979C0.00138263 19.2492 -0.00355307 20.5861 0.00138264 20.6529C0.139969 22.2146 0.853842 23.6685 2.00382 24.7313C3.1538 25.7941 4.65745 26.3895 6.22161 26.4015C7.64927 26.4015 9.07322 26.4015 10.5009 26.4015C11.3061 26.4028 12.0798 26.7149 12.6616 27.2729C13.2433 27.8309 13.5884 28.592 13.6252 29.3982C13.6696 30.5756 13.6449 31.7555 13.6474 32.9341C13.6474 33.5179 13.6239 34.1029 13.7128 34.6817C13.8371 35.5406 14.1358 36.3647 14.5906 37.1032C15.0454 37.8418 15.6465 38.4789 16.3567 38.9753C17.067 39.4717 17.8712 39.8167 18.7198 39.9891C19.5684 40.1615 20.4433 40.1576 21.2903 39.9776C23.9235 39.4445 25.9891 37.1466 26.2458 34.4479C26.3692 33.2112 26.2742 31.9744 26.2939 30.7376C26.3124 29.7024 26.3149 28.6635 26.1532 27.637C25.5671 23.9143 23.7705 20.9114 20.7585 18.653C20.2874 18.3155 19.852 17.9305 19.4592 17.5041C17.918 15.754 16.9987 13.7233 16.847 11.3956C16.7334 9.64931 16.7742 7.89555 16.8309 6.14551C16.8976 4.2149 18.8249 2.80621 20.6894 3.28856C22.1849 3.67319 23.1005 4.87658 23.1128 6.4881C23.1227 7.84856 23.1128 9.20283 23.1128 10.5608C23.1132 12.2157 23.7607 13.8045 24.9164 14.9863C26.0722 16.1681 27.6441 16.8486 29.2948 16.882C30.7447 16.9092 32.1946 16.882 33.6444 16.8968C34.4732 16.9016 35.2672 17.2315 35.8563 17.8159C36.4454 18.4003 36.7827 19.1927 36.7959 20.0234C36.8055 20.8482 36.4902 21.6435 35.9185 22.2367C35.3467 22.8299 34.5646 23.1732 33.7419 23.192C32.4697 23.2254 31.1975 23.213 29.9254 23.2069H29.4318V26.394H29.6786H29.7304C30.9779 26.3829 32.2254 26.3841 33.4741 26.394C33.9013 26.4031 34.3284 26.3691 34.7488 26.2926C37.7941 25.699 39.8572 23.2613 39.9523 20.1557C40.0534 16.8758 37.435 13.9446 34.1688 13.7591" fill="#EF4323"/>
<path d="M195.891 10.8553C195.902 11.2635 195.791 11.6658 195.573 12.0106C195.355 12.3554 195.039 12.627 194.665 12.7907C194.292 12.9544 193.878 13.0027 193.478 12.9294C193.077 12.8562 192.707 12.6646 192.415 12.3794C192.124 12.0942 191.923 11.7282 191.841 11.3283C191.758 10.9284 191.796 10.5129 191.95 10.1348C192.104 9.75674 192.367 9.43337 192.706 9.20611C193.044 8.97884 193.443 8.85801 193.85 8.85909C194.116 8.85384 194.379 8.90153 194.626 8.99937C194.873 9.09721 195.098 9.24325 195.288 9.42901C195.477 9.61476 195.629 9.83652 195.732 10.0814C195.836 10.3262 195.89 10.5893 195.891 10.8553ZM192.313 10.8553C192.313 11.7457 192.97 12.4507 193.869 12.4507C194.744 12.4507 195.388 11.7457 195.388 10.8689C195.388 9.99198 194.744 9.26105 193.856 9.26105C193.649 9.26098 193.445 9.30247 193.254 9.38307C193.063 9.46368 192.89 9.58176 192.746 9.73036C192.601 9.87896 192.488 10.0551 192.413 10.2483C192.337 10.4415 192.301 10.6479 192.307 10.8553H192.313ZM193.547 11.904H193.073V9.90665C193.325 9.86242 193.582 9.84213 193.838 9.84604C194.208 9.84604 194.385 9.90665 194.531 9.99075C194.594 10.045 194.644 10.1128 194.678 10.1889C194.711 10.2651 194.728 10.3478 194.725 10.431C194.725 10.6499 194.555 10.8206 194.312 10.8924V10.9171C194.507 10.9901 194.617 11.136 194.682 11.4044C194.744 11.7086 194.779 11.8311 194.829 11.8991H194.335C194.275 11.8261 194.238 11.6431 194.177 11.4044C194.141 11.1855 194.019 11.089 193.764 11.089H193.545L193.547 11.904ZM193.559 10.7712H193.777C194.033 10.7712 194.239 10.6858 194.239 10.4793C194.239 10.2962 194.106 10.175 193.814 10.175C193.729 10.1729 193.643 10.1808 193.559 10.1985V10.7712Z" fill="#010101"/>
</svg>
