<svg width="120" height="40" viewBox="0 0 120 40" fill="none" xmlns="http://www.w3.org/2000/svg">
<path d="M10.5715 39.8658C7.7473 39.8658 5.20305 39.2806 2.93864 38.1103C2.42978 37.8558 2.12447 37.4996 2.0227 37.0417C1.92093 36.5837 4.13444 33.4797 5.22848 34.0649C5.99177 34.4465 6.78048 34.7455 7.59466 34.9617C8.40883 35.178 9.22299 35.2861 10.0372 35.2861C11.0803 35.2861 12.0535 35.0826 12.9567 34.6755C13.86 34.2684 14.5469 33.6133 15.0176 32.71C15.4883 31.8068 15.7236 30.77 15.7236 29.5997V28.1494C15.3929 28.6583 14.9349 29.1671 14.3497 29.676C13.7645 30.1849 13.0331 30.5856 12.1553 30.8782C11.2775 31.1708 10.3552 31.3171 9.38837 31.3171C8.06534 31.3171 6.81866 31.0499 5.64829 30.5156C4.47792 29.9813 3.47294 29.2435 2.63332 28.3021C1.79371 27.3607 1.14493 26.2667 0.686954 25.02C0.228982 23.7733 0 22.463 0 21.0891C0 19.7152 0.228982 18.4049 0.686954 17.1582C1.14493 15.9115 1.79371 14.8174 2.63332 13.876C3.47294 12.9347 4.47792 12.1968 5.64829 11.6625C6.81866 11.1282 8.06534 10.8611 9.38837 10.8611C10.686 10.8611 11.8818 11.1282 12.9758 11.6625C14.0699 12.1968 15.0367 12.9728 15.7236 14.0414L15.6654 11.9345C15.6557 11.5834 15.9325 11.2908 16.2836 11.2811C16.2895 11.281 16.2954 11.2809 16.3012 11.2809H19.4821C20.5334 11.2809 21.3866 12.1311 21.3903 13.1823L21.4483 29.447C21.4483 31.686 21.0221 33.5624 20.1698 35.0762C19.3174 36.5901 18.0898 37.7668 16.4869 38.6064C14.884 39.446 12.9122 39.8658 10.5715 39.8658ZM10.7241 26.661C11.2584 26.661 11.8182 26.5656 12.4034 26.3748C12.9885 26.184 13.5483 25.8341 14.0826 25.3253C14.6169 24.8164 15.0303 24.1676 15.3229 23.3789C15.6155 22.5902 15.7618 21.8269 15.7618 21.0891C15.7618 20.3512 15.6155 19.5879 15.3229 18.7992C15.0303 18.0105 14.6169 17.3617 14.0826 16.8529C13.5483 16.344 12.9885 15.9942 12.4034 15.8033C11.8182 15.6125 11.2584 15.5171 10.7241 15.5171C10.1898 15.5171 9.63644 15.6125 9.06397 15.8033C8.49151 15.9942 7.93814 16.3504 7.40384 16.8719C6.86954 17.3935 6.46882 18.0487 6.20167 18.8374C5.93452 19.6261 5.80094 20.3767 5.80094 21.0891C5.80094 22.2086 6.06173 23.239 6.58331 24.1804C7.10489 25.1217 7.74095 25.7705 8.49151 26.1267C9.24208 26.4829 9.98627 26.661 10.7241 26.661Z" fill="#9999A5"/>
<path fill-rule="evenodd" clip-rule="evenodd" d="M25.7037 28.5118V12.0758C25.7037 11.7245 25.9885 11.4397 26.3398 11.4397H28.9439C29.9029 11.4397 30.7129 12.1514 30.8363 13.1024L30.9895 14.283C30.9895 12.1133 33.0491 10.9753 37.1684 10.8691C37.5195 10.8601 37.8116 11.1374 37.8206 11.4886C37.8208 11.494 37.8208 11.4995 37.8208 11.505V14.4684C37.8208 15.3967 37.1528 16.1903 36.2381 16.3486L35.531 16.471C34.9967 16.471 34.4942 16.5601 34.0235 16.7382C33.5528 16.9163 33.1139 17.1962 32.7068 17.5778C32.2998 17.9594 31.9372 18.5764 31.6192 19.4288C31.3011 20.2811 31.1421 21.4324 31.1421 22.8826V29.7839C31.1421 30.1352 30.8573 30.42 30.506 30.42H27.6119C26.5581 30.42 25.7037 29.5657 25.7037 28.5118Z" fill="#9999A5"/>
<path d="M51.0384 31.317C49.5373 31.317 48.1189 31.0563 46.7831 30.5347C45.4474 30.0131 44.2834 29.2816 43.2911 28.3402C42.2989 27.3989 41.5292 26.2985 40.9822 25.0391C40.4352 23.7796 40.1617 22.463 40.1617 21.0891C40.1617 20.4276 40.2507 19.6706 40.4288 18.8183C40.6069 17.966 40.944 17.1009 41.4402 16.2231C41.9363 15.3454 42.6169 14.4994 43.4819 13.6852C44.347 12.8711 45.4474 12.1968 46.7831 11.6625C48.1189 11.1282 49.5373 10.8611 51.0384 10.8611C52.1579 10.8611 53.2456 11.0137 54.3015 11.3191C55.3573 11.6244 56.3242 12.0569 57.2019 12.6166C58.0797 13.1764 58.9002 13.9015 59.6635 14.792C60.4268 15.6825 60.9929 16.7002 61.3618 17.8451C61.7307 18.99 61.9152 20.0714 61.9152 21.0891C61.9152 21.7506 61.8261 22.5075 61.648 23.3598C61.4699 24.2122 61.1328 25.0772 60.6367 25.955C60.1406 26.8328 59.46 27.6787 58.5949 28.4929C57.7299 29.3071 56.6295 29.9813 55.2937 30.5156C53.958 31.0499 52.5396 31.317 51.0384 31.317ZM51.0384 26.8328C52.6148 26.8328 53.963 26.277 55.083 25.1656C56.203 24.0541 56.763 22.7084 56.763 21.1282C56.763 19.5213 56.203 18.1622 55.083 17.0507C53.963 15.9392 52.6148 15.3835 51.0384 15.3835C49.4344 15.3835 48.0793 15.9392 46.9731 17.0507C45.8669 18.1622 45.3138 19.5213 45.3138 21.1282C45.3138 22.7084 45.8669 24.0541 46.9731 25.1656C48.0793 26.277 49.4344 26.8328 51.0384 26.8328Z" fill="#9999A5"/>
<path d="M65.0538 28.5216L64.9712 12.0792C64.9694 11.7279 65.2527 11.4417 65.604 11.4399C65.6051 11.4399 65.6062 11.4399 65.6072 11.4399H68.5935C69.6474 11.4399 70.5018 12.2942 70.5018 13.3481V14.0923C70.5018 11.3872 74.5853 10.8611 75.8066 10.8611C76.6716 10.8611 77.4985 11.0137 78.2872 11.3191C79.076 11.6244 79.7375 12.0505 80.2718 12.5976C80.8061 13.1446 81.2131 13.6979 81.493 14.2577C81.951 13.5453 82.4916 12.9156 83.115 12.3686C83.7383 11.8215 84.4444 11.4335 85.2331 11.2046C86.0218 10.9756 86.8742 10.8611 87.7901 10.8611C89.2912 10.8611 90.5697 11.2173 91.6256 11.9297C92.6815 12.6421 93.5084 13.6534 94.1063 14.9637C94.7042 16.274 95.0031 17.8324 95.0031 19.6388L95.0869 29.7789C95.0898 30.1302 94.8074 30.4173 94.4561 30.4202C94.4543 30.4202 94.4526 30.4202 94.4508 30.4202H91.3883C90.3681 30.4202 89.5283 29.6177 89.4821 28.5985L89.0877 19.906C89.0877 18.5575 88.8333 17.5144 88.3244 16.7765C87.8155 16.0387 87.1286 15.6698 86.2635 15.6698C85.602 15.6698 85.0105 15.8733 84.4889 16.2804C83.9673 16.6875 83.5539 17.2472 83.2486 17.9596C82.9433 18.672 82.7779 19.5498 82.7524 20.5929V29.7841C82.7524 30.1354 82.4677 30.4202 82.1164 30.4202H79.1376C78.1174 30.4202 77.2776 29.6177 77.2314 28.5985L76.837 19.906C76.837 18.5575 76.5889 17.5144 76.0928 16.7765C75.5967 16.0387 74.9161 15.6698 74.051 15.6698C73.3641 15.6698 72.7471 15.886 72.2001 16.3186C71.653 16.7511 71.2332 17.3363 70.9406 18.0741C70.648 18.8119 70.5018 19.7152 70.5018 20.7838V29.7841C70.5018 30.1354 70.217 30.4202 69.8657 30.4202H66.962C65.9119 30.4202 65.0591 29.5717 65.0538 28.5216Z" fill="#9999A5"/>
<path d="M101.416 13.603C101.627 13.4185 101.947 13.4629 102.115 13.6873L103.991 16.2022C104.045 16.275 104.037 16.3765 103.973 16.4409C102.671 17.7485 102.021 19.3474 102.021 21.2378C102.021 23.0967 102.671 24.6799 103.973 25.9874C105.274 27.2949 106.868 27.9487 108.755 27.9487C110.61 27.9487 112.196 27.2949 113.513 25.9874C114.831 24.6799 115.49 23.0967 115.49 21.2378C115.49 19.3474 114.831 17.7485 113.513 16.4409C112.994 15.9253 112.432 15.5114 111.829 15.1991C111.612 15.0865 111.49 14.8425 111.55 14.6051L112.21 11.9939C112.28 11.716 112.569 11.5529 112.839 11.6499C113.624 11.9318 114.355 12.2893 115.034 12.7223C115.919 13.2867 116.747 14.0179 117.517 14.9158C118.286 15.8137 118.857 16.8399 119.229 17.9944C119.601 19.1489 119.787 20.2393 119.787 21.2655C119.787 21.9325 119.697 22.6958 119.518 23.5552C119.338 24.4147 118.998 25.2869 118.498 26.1721C117.998 27.0572 117.311 27.9102 116.439 28.7312C115.567 29.5521 114.457 30.232 113.11 30.7708C111.763 31.3095 110.333 31.5789 108.819 31.5789C107.306 31.5789 105.875 31.3159 104.529 30.79C103.182 30.2641 102.008 29.5265 101.007 28.5772C100.007 27.628 99.2307 26.5184 98.6791 25.2485C98.1275 23.9785 97.8517 22.6509 97.8517 21.2655C97.8517 20.5984 97.9415 19.8352 98.1211 18.9757C98.3007 18.1163 98.6406 17.244 99.1409 16.3589C99.6412 15.4738 100.327 14.6208 101.2 13.7998C101.27 13.7333 101.343 13.6677 101.416 13.603Z" fill="#9999A5"/>
<path d="M106.387 19.823H109.012C108.958 19.4076 108.806 19.0819 108.546 18.8349C108.22 18.543 107.775 18.3969 107.211 18.3969H106.213L106.398 17.8354H111.334L111.149 18.3969H109.197C109.609 18.7562 109.847 19.2279 109.902 19.823H111.312L111.128 20.3844H109.891C109.837 20.8335 109.652 21.2041 109.348 21.496C108.98 21.8442 108.513 22.0688 107.927 22.1698C108.058 22.2597 108.242 22.4729 108.502 22.8322L110.759 25.8527H109.555L107.602 23.1355C107.396 22.8435 107.201 22.6413 107.027 22.5178C106.81 22.3718 106.561 22.2932 106.278 22.2932V21.6532H106.864C107.58 21.6532 108.123 21.5072 108.491 21.2265C108.774 21.0132 108.936 20.7325 109.001 20.3844H106.203L106.387 19.823Z" fill="#9999A5"/>
<path fill-rule="evenodd" clip-rule="evenodd" d="M106.265 19.6552H108.812C108.745 19.3644 108.619 19.137 108.432 18.9587C108.145 18.7027 107.745 18.5653 107.211 18.5653H105.981L106.276 17.6677H111.566L111.271 18.5653H109.59C109.835 18.8711 109.989 19.2344 110.051 19.6552H111.544L111.249 20.5528H110.035C109.956 20.9739 109.763 21.3306 109.465 21.6175L109.464 21.6186C109.138 21.9259 108.744 22.141 108.272 22.2667C108.379 22.3874 108.5 22.5434 108.638 22.7329L111.094 26.0211H109.468L107.465 23.2327C107.266 22.9514 107.084 22.7655 106.931 22.6563C106.743 22.53 106.527 22.4616 106.278 22.4616H106.11V21.4855H106.864C107.561 21.4855 108.061 21.3429 108.39 21.0931V21.0928C108.581 20.9485 108.709 20.7703 108.784 20.5528H105.97L106.265 19.6552ZM109.001 20.3847C108.991 20.4426 108.977 20.4986 108.961 20.5528C108.879 20.8243 108.727 21.049 108.491 21.2268C108.123 21.5076 107.58 21.6535 106.864 21.6535H106.278V22.2936C106.561 22.2936 106.81 22.3722 107.027 22.5181C107.201 22.6417 107.396 22.8438 107.602 23.1357L109.555 25.8531H110.759L108.502 22.8325C108.333 22.5992 108.196 22.4274 108.085 22.3111C108.025 22.2482 107.973 22.2016 107.927 22.1701C108 22.1576 108.07 22.1433 108.138 22.1271C108.627 22.0118 109.025 21.8015 109.348 21.4963C109.652 21.2044 109.837 20.8338 109.891 20.3847H111.128L111.312 19.8233H109.902C109.856 19.3168 109.676 18.8998 109.369 18.5653C109.316 18.5067 109.258 18.4507 109.197 18.3972H111.149L111.334 17.8358H106.398L106.213 18.3972H107.211C107.776 18.3972 108.22 18.5432 108.546 18.8351C108.77 19.0478 108.914 19.3188 108.984 19.6552C108.995 19.7095 109.005 19.7655 109.012 19.8233H106.387L106.203 20.3847H109.001Z" fill="#9999A5"/>
<path d="M107.766 9.44181C107.051 9.40931 107.277 9.40931 107.006 8.90619C109.889 4.61342 110.539 3.49374 111.711 2.28641C110.239 3.32975 108.542 4.91056 106.449 7.96452C104.562 3.03925 110.144 0.633335 113.754 0C113.444 2.85498 114.398 10.2323 107.766 9.44181Z" fill="#9999A5"/>
<path d="M108.976 17.8716L108.567 18.6093C108.489 18.5714 108.363 18.5011 108.205 18.3965C107.947 18.226 107.686 18.0177 107.436 17.7695C105.734 16.0751 105.155 11.6893 107.279 8.48889L108.023 8.92144C104.618 13.8933 108.931 17.85 108.976 17.8716Z" fill="#9999A5"/>
</svg>
