<svg width="170" height="40" viewBox="0 0 170 40" fill="none" xmlns="http://www.w3.org/2000/svg">
<path d="M28.92 12.69C28.92 16.04 29.01 17.5 29.42 17.91C29.79 18.27 30.38 18.44 32.17 18.44C33.38 18.44 34.39 18.42 34.95 17.75C35.24 17.39 35.47 16.81 35.54 16.38C35.56 16.2 35.6 16.08 35.74 16.08C35.86 16.08 35.88 16.18 35.88 16.43C35.88 16.68 35.72 18.05 35.54 18.71C35.38 19.23 35.31 19.32 34.09 19.32C30.79 19.32 29.28 19.19 27.95 19.19C27.75 19.19 26.4 19.25 25.71 19.25C25.45 19.25 25.34 19.21 25.34 19.08C25.34 19.01 25.38 18.94 25.52 18.94C25.73 18.94 26.01 18.9 26.21 18.85C26.67 18.76 26.79 18.25 26.87 17.59C26.99 16.64 26.99 14.83 26.99 12.64V8.61999C26.99 5.06999 26.99 4.41999 26.94 3.68999C26.9 2.90999 26.72 2.54999 25.96 2.38999C25.78 2.33999 25.38 2.31999 25.18 2.31999C25.09 2.31999 25 2.27999 25 2.18999C25 2.04999 25.11 1.99999 25.36 1.99999C26.4 1.99999 27.84 2.06999 27.95 2.06999C28.07 2.06999 29.74 1.99999 30.43 1.99999C30.68 1.99999 30.79 2.04999 30.79 2.18999C30.79 2.27999 30.7 2.31999 30.61 2.31999C30.45 2.31999 30.13 2.33999 29.85 2.38999C29.19 2.49999 29.01 2.88999 28.96 3.68999C28.92 4.41999 28.92 5.06999 28.92 8.61999V12.69ZM38.8 17.06C38.39 18.21 37.93 19.08 36.87 19.21C36.69 19.23 36.36 19.26 36.21 19.26C36.09 19.26 36 19.3 36 19.4C36 19.53 36.14 19.57 36.44 19.57C37.52 19.57 38.78 19.51 39.03 19.51C39.28 19.51 40.26 19.57 40.81 19.57C41.02 19.57 41.16 19.53 41.16 19.4C41.16 19.3 41.09 19.26 40.93 19.26H40.7C40.31 19.26 39.83 19.05 39.83 18.59C39.83 18.18 39.94 17.63 40.15 17.06L41.52 13.03C41.57 12.91 41.63 12.85 41.75 12.85H46.68C46.79 12.85 46.84 12.89 46.89 12.98L49.02 18.59C49.15 18.96 49.02 19.17 48.88 19.21C48.79 19.23 48.71 19.28 48.71 19.37C48.71 19.51 48.98 19.51 49.41 19.53C50.99 19.57 52.66 19.57 53 19.57C53.25 19.57 53.46 19.53 53.46 19.4C53.46 19.28 53.37 19.26 53.23 19.26C53 19.26 52.66 19.23 52.32 19.12C51.83 18.98 51.17 18.61 50.35 16.58C48.94 13.12 45.35 3.68999 45.01 2.81999C44.73 2.11999 44.64 1.99999 44.5 1.99999C44.37 1.99999 44.27 2.13999 44 2.88999L38.8 17.06ZM42.01 12.02C41.94 12.02 41.89 11.98 41.94 11.86L43.95 5.69999C44.07 5.35999 44.19 5.35999 44.3 5.69999L46.47 11.86C46.5 11.95 46.5 12.02 46.38 12.02H42.01ZM58.18 16.47C58.23 18.34 58.46 18.93 59.08 19.12C59.52 19.23 60.02 19.26 60.23 19.26C60.34 19.26 60.41 19.3 60.41 19.4C60.41 19.53 60.28 19.57 60 19.57C58.69 19.57 57.78 19.51 57.57 19.51C57.36 19.51 56.4 19.57 55.37 19.57C55.14 19.57 55 19.55 55 19.4C55 19.3 55.07 19.26 55.19 19.26C55.37 19.26 55.78 19.23 56.13 19.12C56.7 18.96 56.81 18.29 56.81 16.22L56.83 3.14999C56.83 2.24999 56.9 1.99999 57.08 1.99999C57.27 1.99999 57.66 2.49999 57.89 2.72999C58.23 3.11999 61.65 6.78999 65.18 10.56C67.44 12.98 69.94 15.76 70.67 16.51L70.42 4.91999C70.4 3.43999 70.24 2.93999 69.53 2.74999C69.12 2.65999 68.59 2.63999 68.4 2.63999C68.24 2.63999 68.22 2.56999 68.22 2.47999C68.22 2.34999 68.4 2.31999 68.68 2.31999C69.71 2.31999 70.81 2.38999 71.07 2.38999C71.32 2.38999 72.08 2.31999 73.01 2.31999C73.27 2.31999 73.42 2.34999 73.42 2.47999C73.42 2.56999 73.33 2.63999 73.17 2.63999C73.06 2.63999 72.89 2.63999 72.62 2.69999C71.86 2.86999 71.78 3.36999 71.78 4.73999L71.73 18.11C71.73 19.62 71.68 19.74 71.52 19.74C71.34 19.74 71.07 19.48 69.85 18.27C69.59 18.04 66.3 14.69 63.87 12.09C61.21 9.23999 58.62 6.35999 57.89 5.53999L58.18 16.47ZM76.99 12.65C76.99 14.83 76.99 16.64 76.88 17.6C76.79 18.25 76.67 18.76 76.21 18.85C76.01 18.9 75.74 18.94 75.52 18.94C75.39 18.94 75.34 19.01 75.34 19.08C75.34 19.21 75.46 19.26 75.71 19.26C76.4 19.26 77.84 19.19 77.96 19.19C78.19 19.19 81.07 19.47 83.04 19.47C86.94 19.47 89 17.87 89.98 16.84C91.27 15.5 92.45 13.28 92.45 10.4C92.45 7.68999 91.38 5.79999 90.23 4.60999C87.51 1.79999 83.31 1.99999 81.05 1.99999C79.67 1.99999 78.23 2.07999 77.96 2.07999C77.84 2.07999 76.4 1.99999 75.37 1.99999C75.11 1.99999 75 2.04999 75 2.18999C75 2.27999 75.09 2.31999 75.18 2.31999C75.39 2.31999 75.78 2.34999 75.97 2.38999C76.72 2.54999 76.9 2.91999 76.95 3.68999C76.99 4.42999 76.99 5.06999 76.99 8.61999V12.65ZM78.92 8.25999C78.92 6.49999 78.92 4.16999 78.94 3.38999C78.94 3.14999 79 3.02999 79.22 2.93999C79.4 2.84999 80.25 2.77999 80.7 2.77999C83.43 2.77999 86.04 3.09999 88.2 5.35999C89.14 6.33999 90.4 8.20999 90.4 11.11C90.4 13.21 89.75 15.41 88.56 16.57C87.21 17.91 85.24 18.68 83.11 18.68C80.41 18.68 79.52 18.2 79.22 17.78C79.03 17.52 78.99 16.61 78.96 16.04C78.94 15.61 78.92 13.51 78.92 11.09V8.25999ZM112.98 16.63C113.08 17.45 113.23 18.73 114.22 19.05C114.89 19.26 115.48 19.26 115.71 19.26C115.82 19.26 115.89 19.28 115.89 19.37C115.89 19.51 115.69 19.57 115.41 19.57C114.91 19.57 112.43 19.51 111.59 19.44C111.06 19.4 110.94 19.33 110.94 19.21C110.94 19.12 110.99 19.08 111.1 19.05C111.22 19.02 111.24 18.64 111.2 18.23L110.1 6.44999H110.03L104.42 18.32C103.93 19.33 103.87 19.53 103.66 19.53C103.5 19.53 103.39 19.3 102.95 18.48C102.36 17.36 100.38 13.41 100.26 13.18C100.06 12.78 97.49 7.29999 97.24 6.67999H97.15L96.23 17.27C96.21 17.63 96.21 18.04 96.21 18.43C96.21 18.78 96.46 19.08 96.81 19.14C97.2 19.24 97.54 19.26 97.68 19.26C97.77 19.26 97.86 19.3 97.86 19.37C97.86 19.53 97.72 19.57 97.45 19.57C96.6 19.57 95.5 19.51 95.32 19.51C95.11 19.51 94.01 19.57 93.4 19.57C93.17 19.57 93 19.53 93 19.37C93 19.3 93.12 19.26 93.23 19.26C93.42 19.26 93.57 19.26 93.92 19.19C94.67 19.05 94.74 18.16 94.84 17.29L96.49 2.40999C96.54 2.15999 96.6 1.99999 96.74 1.99999C96.88 1.99999 96.97 2.08999 97.08 2.34999L104.09 16.69L110.83 2.36999C110.92 2.15999 111.02 1.99999 111.18 1.99999C111.34 1.99999 111.41 2.17999 111.45 2.61999L112.98 16.63ZM118.8 17.06C118.38 18.21 117.92 19.08 116.88 19.21C116.69 19.23 116.37 19.26 116.21 19.26C116.09 19.26 116 19.3 116 19.4C116 19.53 116.14 19.57 116.43 19.57C117.51 19.57 118.77 19.51 119.02 19.51C119.28 19.51 120.26 19.57 120.81 19.57C121.02 19.57 121.15 19.53 121.15 19.4C121.15 19.3 121.09 19.26 120.93 19.26H120.69C120.31 19.26 119.83 19.05 119.83 18.59C119.83 18.18 119.94 17.63 120.15 17.06L121.52 13.03C121.57 12.91 121.64 12.85 121.75 12.85H126.67C126.79 12.85 126.84 12.89 126.88 12.98L129.01 18.59C129.15 18.96 129.01 19.17 128.88 19.21C128.79 19.23 128.72 19.28 128.72 19.37C128.72 19.51 128.97 19.51 129.41 19.53C130.98 19.57 132.66 19.57 133 19.57C133.25 19.57 133.45 19.53 133.45 19.4C133.45 19.28 133.37 19.26 133.23 19.26C133 19.26 132.66 19.23 132.31 19.12C131.83 18.98 131.16 18.61 130.34 16.58C128.94 13.12 125.35 3.68999 125 2.81999C124.73 2.11999 124.64 1.99999 124.5 1.99999C124.36 1.99999 124.26 2.13999 124 2.88999L118.8 17.06ZM122 12.02C121.93 12.02 121.89 11.98 121.93 11.86L123.95 5.69999C124.07 5.35999 124.18 5.35999 124.29 5.69999L126.47 11.86C126.49 11.95 126.49 12.02 126.38 12.02H122ZM135.99 12.64C135.99 14.83 135.99 16.64 135.88 17.59C135.78 18.25 135.67 18.76 135.21 18.85C135.01 18.9 134.73 18.94 134.53 18.94C134.39 18.94 134.34 19.01 134.34 19.08C134.34 19.21 134.46 19.25 134.71 19.25C135.4 19.25 136.84 19.19 136.87 19.19C136.98 19.19 138.42 19.25 139.68 19.25C139.93 19.25 140.05 19.19 140.05 19.08C140.05 19.01 140 18.94 139.87 18.94C139.66 18.94 139.15 18.9 138.83 18.85C138.15 18.76 138.01 18.25 137.94 17.59C137.82 16.64 137.82 14.83 137.82 12.64V12.09C137.82 11.98 137.87 11.92 137.99 11.92L140.81 11.95C140.94 11.95 141.01 12 141.1 12.09C141.56 12.69 142.64 14.21 143.6 15.47C144.9 17.18 145.71 18.3 146.69 18.82C147.29 19.15 147.86 19.25 149.14 19.25H150.77C151.18 19.25 151.33 19.21 151.33 19.08C151.33 19.01 151.23 18.94 151.11 18.94C150.98 18.94 150.66 18.94 150.22 18.87C149.65 18.78 148.66 18.52 147.42 17.23C146.1 15.81 144.54 13.78 142.66 11.38C144.72 9.48999 145.43 7.79999 145.43 6.10999C145.43 4.52999 144.43 3.41999 143.85 3.00999C142.64 2.13999 141.1 1.99999 139.66 1.99999C138.95 1.99999 137.21 2.06999 136.96 2.06999C136.84 2.06999 135.4 1.99999 134.37 1.99999C134.12 1.99999 134 2.04999 134 2.18999C134 2.27999 134.09 2.31999 134.18 2.31999C134.39 2.31999 134.77 2.33999 134.96 2.38999C135.72 2.54999 135.9 2.90999 135.95 3.68999C135.99 4.41999 135.99 5.06999 135.99 8.61999V12.64ZM137.82 3.13999C137.82 3.00999 137.89 2.90999 138.01 2.86999C138.24 2.79999 138.86 2.73999 139.54 2.73999C142 2.73999 143.51 4.43999 143.51 7.28999C143.51 9.02999 142.91 10.26 142.11 10.81C141.59 11.18 140.94 11.24 140.39 11.24C139.38 11.24 138.33 11.09 137.99 10.88C137.87 10.81 137.82 10.72 137.82 10.61V3.13999ZM153.99 8.61999C153.99 5.06999 153.99 4.41999 153.94 3.68999C153.9 2.90999 153.71 2.54999 152.96 2.38999C152.77 2.33999 152.38 2.31999 152.17 2.31999C152.08 2.31999 152 2.27999 152 2.18999C152 2.04999 152.11 1.99999 152.36 1.99999C153.39 1.99999 154.74 2.06999 154.88 2.06999C155.09 2.06999 156.42 1.99999 157.1 1.99999C157.35 1.99999 157.47 2.04999 157.47 2.18999C157.47 2.27999 157.37 2.31999 157.29 2.31999C157.13 2.31999 156.98 2.33999 156.71 2.38999C156.09 2.49999 155.92 2.88999 155.87 3.68999C155.83 4.41999 155.83 5.06999 155.83 8.61999V9.98999H155.92C156.3 9.55999 160.45 5.34999 161.27 4.46999C161.92 3.79999 162.51 3.20999 162.51 2.82999C162.51 2.54999 162.4 2.40999 162.21 2.33999C162.1 2.29999 162 2.24999 162 2.15999C162 2.04999 162.12 1.99999 162.28 1.99999C162.74 1.99999 163.45 2.06999 164 2.06999C164.11 2.06999 165.63 1.99999 166.2 1.99999C166.45 1.99999 166.55 2.04999 166.55 2.15999C166.55 2.27999 166.5 2.31999 166.31 2.31999C165.97 2.31999 165.49 2.42999 165.03 2.63999C164.09 3.05999 163.59 3.61999 162.56 4.59999C161.99 5.14999 158 9.02999 157.52 9.59999C158.11 10.26 162.87 15.17 163.82 16.04C165.74 17.81 166.13 18.19 167.23 18.64C167.82 18.9 168.49 18.94 168.65 18.94C168.81 18.94 168.95 18.98 168.95 19.08C168.95 19.19 168.83 19.25 168.45 19.25H167.28C166.63 19.25 166.2 19.25 165.69 19.21C164.48 19.1 163.91 18.6 162.92 17.81C161.89 16.97 157.04 11.75 155.94 10.4H155.83V12.64C155.83 14.83 155.83 16.64 155.94 17.59C156.01 18.25 156.14 18.76 156.83 18.85C157.15 18.9 157.52 18.94 157.72 18.94C157.86 18.94 157.91 19.01 157.91 19.08C157.91 19.19 157.79 19.25 157.54 19.25C156.42 19.25 155.09 19.19 154.9 19.19C154.72 19.19 153.39 19.25 152.7 19.25C152.45 19.25 152.33 19.21 152.33 19.08C152.33 19.01 152.38 18.94 152.52 18.94C152.73 18.94 153 18.9 153.21 18.85C153.67 18.76 153.78 18.25 153.87 17.59C153.99 16.64 153.99 14.83 153.99 12.64V8.61999ZM115.55 35.19C115.55 33.75 115.46 33.55 114.74 33.36C114.6 33.32 114.29 33.3 114.13 33.3C114.06 33.3 113.99 33.27 113.99 33.2C113.99 33.09 114.08 33.05 114.28 33.05C115.09 33.05 116.21 33.1 116.3 33.1C116.39 33.1 117.52 33.05 118.06 33.05C118.25 33.05 118.34 33.09 118.34 33.2C118.34 33.27 118.27 33.3 118.2 33.3C118.07 33.3 117.96 33.32 117.75 33.36C117.26 33.44 117.13 33.75 117.08 34.37C117.05 34.95 117.05 35.48 117.05 36.23V38.23C117.05 39.02 117.04 39.06 116.82 39.19C115.67 39.79 114.06 39.99 113.02 39.99C111.67 39.99 109.12 39.81 107.13 38.08C106.04 37.14 105 35.23 105 33C105 30.15 106.39 28.13 107.99 27.12C109.6 26.13 111.37 26 112.76 26C113.88 26 115.15 26.24 115.5 26.31C115.87 26.4 116.49 26.47 116.94 26.48C117.13 26.5 117.15 26.58 117.15 26.64C117.15 26.89 117.04 27.4 117.04 29.18C117.04 29.46 117 29.55 116.87 29.55C116.78 29.55 116.77 29.45 116.75 29.29C116.73 29.04 116.64 28.54 116.37 28.11C115.92 27.43 114.47 26.66 112.16 26.66C111.03 26.66 109.69 26.77 108.33 27.84C107.29 28.66 106.56 30.29 106.56 32.37C106.56 34.89 107.83 36.71 108.46 37.31C109.87 38.69 111.5 39.22 113.15 39.22C113.79 39.22 114.73 39.11 115.18 38.85C115.42 38.72 115.55 38.53 115.55 38.23V35.19ZM120.56 34.31C120.56 36.03 120.56 37.43 120.47 38.18C120.4 38.7 120.31 39.09 119.95 39.16C119.79 39.2 119.57 39.23 119.42 39.23C119.31 39.23 119.26 39.28 119.26 39.34C119.26 39.45 119.36 39.49 119.56 39.49C120.1 39.49 121.22 39.44 121.24 39.44C121.33 39.44 122.45 39.49 123.44 39.49C123.64 39.49 123.73 39.44 123.73 39.34C123.73 39.28 123.69 39.23 123.58 39.23C123.42 39.23 123.03 39.2 122.78 39.16C122.24 39.09 122.14 38.7 122.08 38.18C121.99 37.43 121.99 36.03 121.99 34.31V33.88C121.99 33.79 122.02 33.74 122.12 33.74L124.32 33.78C124.42 33.78 124.48 33.81 124.55 33.88C124.91 34.34 125.75 35.54 126.5 36.52C127.52 37.86 128.15 38.73 128.92 39.15C129.38 39.4 129.83 39.49 130.84 39.49H132.11C132.43 39.49 132.54 39.45 132.54 39.34C132.54 39.28 132.47 39.23 132.38 39.23C132.27 39.23 132.02 39.23 131.68 39.18C131.23 39.11 130.47 38.92 129.5 37.9C128.45 36.8 127.24 35.2 125.77 33.33C127.38 31.85 127.94 30.53 127.94 29.21C127.94 27.98 127.15 27.11 126.7 26.78C125.75 26.1 124.55 26 123.42 26C122.87 26 121.51 26.05 121.32 26.05C121.22 26.05 120.1 26 119.29 26C119.09 26 119 26.03 119 26.14C119 26.21 119.07 26.25 119.15 26.25C119.31 26.25 119.61 26.26 119.75 26.3C120.34 26.42 120.49 26.71 120.52 27.32C120.56 27.89 120.56 28.39 120.56 31.17V34.31ZM121.99 26.88C121.99 26.78 122.05 26.71 122.14 26.68C122.31 26.62 122.8 26.57 123.33 26.57C125.25 26.57 126.43 27.9 126.43 30.13C126.43 31.49 125.97 32.45 125.34 32.89C124.93 33.17 124.42 33.22 124 33.22C123.21 33.22 122.39 33.1 122.12 32.94C122.02 32.89 121.99 32.81 121.99 32.73V26.88ZM138.95 39.99C143.27 39.99 146.09 36.69 146.09 32.69C146.09 28.54 143.08 26 139.06 26C134.11 26 132 30.09 132 32.98C132 36.19 134.04 39.99 138.95 39.99ZM138.94 26.61C141.76 26.61 144.37 28.91 144.37 33.2C144.37 38.39 141.04 39.31 139.43 39.31C136.21 39.31 133.7 36.63 133.7 32.48C133.7 28.57 135.94 26.61 138.94 26.61ZM147.56 31.17C147.56 28.39 147.56 27.89 147.52 27.32C147.48 26.71 147.34 26.42 146.75 26.3C146.61 26.26 146.3 26.25 146.14 26.25C146.07 26.25 146 26.21 146 26.14C146 26.03 146.09 26 146.28 26C147.09 26 148.18 26.05 148.34 26.05C148.51 26.05 149.58 26 150.12 26C150.32 26 150.39 26.03 150.39 26.14C150.39 26.21 150.33 26.25 150.26 26.25C150.13 26.25 150.03 26.26 149.81 26.3C149.33 26.37 149.18 26.69 149.15 27.32C149.11 27.89 149.11 28.39 149.11 31.17V33.67C149.11 36.24 149.68 37.34 150.45 38.07C151.33 38.9 152.14 39.05 153.16 39.05C154.25 39.05 155.32 38.54 155.97 37.77C156.8 36.75 157.01 35.24 157.01 33.4V31.17C157.01 28.39 157.01 27.89 156.98 27.32C156.93 26.71 156.8 26.42 156.2 26.3C156.06 26.26 155.76 26.25 155.59 26.25C155.52 26.25 155.45 26.21 155.45 26.14C155.45 26.03 155.54 26 155.74 26C156.54 26 157.53 26.05 157.64 26.05C157.76 26.05 158.6 26 159.14 26C159.34 26 159.43 26.03 159.43 26.14C159.43 26.21 159.36 26.25 159.28 26.25C159.16 26.25 159.05 26.25 158.84 26.3C158.35 26.38 158.21 26.69 158.17 27.32C158.13 27.89 158.13 28.39 158.13 31.17V33.08C158.13 35.01 157.92 37.15 156.49 38.42C155.2 39.55 153.86 39.73 152.8 39.73C152.2 39.73 150.39 39.66 149.11 38.46C148.23 37.63 147.56 36.38 147.56 33.78V31.17ZM162.56 31.17C162.56 28.39 162.56 27.89 162.52 27.32C162.49 26.71 162.34 26.42 161.75 26.3C161.61 26.26 161.31 26.25 161.14 26.25C161.07 26.25 161 26.21 161 26.14C161 26.03 161.09 26 161.29 26C162.09 26 163.17 26.05 163.31 26.05C163.7 26.05 164.75 26 165.57 26C167.81 26 168.61 26.75 168.9 27.01C169.29 27.39 169.8 28.19 169.8 29.14C169.8 31.67 167.93 33.39 165.39 33.39C165.3 33.39 165.11 33.39 165.02 33.37C164.93 33.37 164.82 33.33 164.82 33.24C164.82 33.1 164.93 33.08 165.3 33.08C167.04 33.08 168.4 31.82 168.4 30.17C168.4 29.59 168.34 28.39 167.4 27.42C166.45 26.46 165.36 26.53 164.95 26.53C164.64 26.53 164.33 26.57 164.17 26.64C164.06 26.68 164.03 26.8 164.03 26.98V34.31C164.03 36.03 164.03 37.43 164.12 38.18C164.17 38.7 164.28 39.09 164.82 39.16C165.07 39.2 165.46 39.23 165.62 39.23C165.73 39.23 165.77 39.28 165.77 39.34C165.77 39.44 165.68 39.49 165.48 39.49C164.5 39.49 163.37 39.44 163.28 39.44C163.22 39.44 162.09 39.49 161.56 39.49C161.36 39.49 161.27 39.45 161.27 39.34C161.27 39.28 161.31 39.23 161.41 39.23C161.57 39.23 161.79 39.2 161.95 39.16C162.31 39.09 162.4 38.7 162.47 38.18C162.56 37.43 162.56 36.03 162.56 34.31V31.17Z" fill="#9999A5"/>
<path d="M18.29 15.47C18.29 15.48 18.29 15.49 18.28 15.49H11.27V18.29H15.97C14.56 19.37 12.95 19.75 11.03 19.75C7.65 19.75 4.74 17.71 3.45 14.81H16.84V14.8H21.57C21.85 13.91 22.02 12.97 22.07 12H19.3V12.01L2.77 12.02V12H0C0.26 17.85 5.1 22.5 11.03 22.5C15.83 22.5 19.77 19.73 21.3 15.47H18.29ZM18.63 7.72L3.44 7.73C4.71 4.81 7.63 2.76 11.03 2.76V0C5.1 0 0.27 4.66 0 10.5H22.06C22.03 9.53 21.86 8.61 21.58 7.72H18.63Z" fill="#DFBB24"/>
</svg>
