<svg width="152" height="29" viewBox="0 0 152 29" fill="none" xmlns="http://www.w3.org/2000/svg">
<path fill-rule="evenodd" clip-rule="evenodd" d="M0.139374 14.1262C0.139374 6.40114 6.44291 0.138245 14.2193 0.138245C21.9952 0.138245 28.299 6.40114 28.299 14.1262C28.299 21.8512 21.9952 28.1141 14.2193 28.1141C6.44291 28.1141 0.139374 21.8512 0.139374 14.1262Z" fill="#FD3753"/>
<mask id="mask0" mask-type="alpha" maskUnits="userSpaceOnUse" x="0" y="0" width="29" height="29">
<path d="M0 0H28.4386V28.2524H0V0Z" fill="white"/>
</mask>
<g mask="url(#mask0)">
<path fill-rule="evenodd" clip-rule="evenodd" d="M14.2192 0.27674C6.53228 0.27674 0.278638 6.48979 0.278638 14.1262C0.278638 21.7627 6.53228 27.9754 14.2192 27.9754C21.9059 27.9754 28.1598 21.7627 28.1598 14.1262C28.1598 6.48979 21.9059 0.27674 14.2192 0.27674ZM14.2192 28.2523C6.37841 28.2523 -0.000106812 21.9155 -0.000106812 14.1262C-0.000106812 6.33693 6.37841 -0.000183105 14.2192 -0.000183105C22.0598 -0.000183105 28.4386 6.33693 28.4386 14.1262C28.4386 21.9155 22.0598 28.2523 14.2192 28.2523Z" fill="#D31831"/>
</g>
<path fill-rule="evenodd" clip-rule="evenodd" d="M12.414 20.2261C12.8248 19.7966 13.0303 19.2666 13.0303 18.6366C13.0303 18.3358 12.9762 18.0534 12.868 17.7883C12.7596 17.5233 12.6083 17.2871 12.414 17.0794C12.2194 16.8723 11.9961 16.7072 11.7439 16.5857C11.4916 16.4638 11.214 16.4026 10.9113 16.4026C10.6378 16.4026 10.371 16.4605 10.1115 16.5746C9.8523 16.6895 9.62512 16.8507 9.43056 17.0584C9.23627 17.2661 9.08129 17.5056 8.96561 17.7775C8.85077 18.0498 8.79307 18.3358 8.79307 18.6366C8.79307 18.9373 8.84687 19.2239 8.95502 19.4959C9.06317 19.7681 9.21425 20.0043 9.4091 20.2045C9.60366 20.405 9.82721 20.5664 10.0792 20.6875C10.3315 20.8096 10.6085 20.8702 10.9113 20.8702C11.5025 20.8702 12.0031 20.6556 12.414 20.2261ZM9.65746 21.4933C9.26833 21.336 8.92631 21.1175 8.63084 20.8378C8.33537 20.5587 8.10485 20.23 7.93872 19.8503C7.77342 19.4709 7.69035 19.0661 7.69035 18.6366C7.69035 18.2071 7.77342 17.8063 7.93872 17.4342C8.10485 17.0614 8.33537 16.7358 8.63084 16.4569C8.92631 16.1778 9.26833 15.9593 9.65746 15.8017C10.0469 15.6444 10.465 15.5655 10.9113 15.5655C11.3584 15.5655 11.7762 15.6444 12.165 15.8017C12.5545 15.9593 12.8968 16.1778 13.1922 16.4569C13.488 16.7358 13.7185 17.0614 13.8838 17.4342C14.0499 17.8063 14.1327 18.2071 14.1327 18.6366C14.1327 19.0661 14.0499 19.4709 13.8838 19.8503C13.7185 20.23 13.488 20.5587 13.1922 20.8378C12.8968 21.1175 12.5545 21.336 12.165 21.4933C11.7762 21.6509 11.3584 21.7292 10.9113 21.7292C10.465 21.7292 10.0469 21.6509 9.65746 21.4933ZM18.9859 11.2056C19.2382 11.091 19.4615 10.9298 19.656 10.7221C19.8509 10.515 20.0059 10.2746 20.1207 10.0027C20.2364 9.73127 20.2941 9.44438 20.2941 9.14364C20.2941 8.84318 20.24 8.56016 20.1316 8.29515C20.0237 8.03069 19.8723 7.79419 19.6778 7.5865C19.4832 7.37881 19.2563 7.21459 18.9968 7.09275C18.7376 6.97118 18.4636 6.90998 18.1753 6.90998C17.9016 6.90998 17.6349 6.9673 17.3753 7.08195C17.1161 7.19659 16.8856 7.35416 16.6835 7.5541C16.482 7.75487 16.3234 7.99109 16.208 8.2633C16.0926 8.53524 16.0349 8.82906 16.0349 9.14364C16.0349 9.44438 16.0892 9.72739 16.1971 9.99186C16.3052 10.2569 16.4566 10.4934 16.6512 10.7011C16.8455 10.9087 17.0726 11.073 17.3324 11.1948C17.5914 11.3164 17.8726 11.3776 18.1753 11.3776C18.4636 11.3776 18.7342 11.3203 18.9859 11.2056ZM20.1207 21.6005L14.2194 14.1263L8.2091 6.82413L8.96561 6.17973L14.8243 13.6323L20.8775 20.9347L20.1207 21.6005ZM16.9107 11.9785C16.5146 11.8209 16.172 11.603 15.8835 11.3236C15.5956 11.0444 15.3648 10.7188 15.1919 10.3466C15.0191 9.97413 14.9324 9.57315 14.9324 9.14364C14.9324 8.71441 15.0191 8.31343 15.1919 7.94096C15.3648 7.56878 15.5956 7.24312 15.8835 6.96343C16.172 6.68456 16.5146 6.46275 16.9107 6.2977C17.3073 6.13321 17.7285 6.05096 18.1753 6.05096C18.6219 6.05096 19.04 6.13321 19.4291 6.2977C19.818 6.46275 20.1608 6.68456 20.4563 6.96343C20.7518 7.24312 20.9823 7.56878 21.1479 7.94096C21.3137 8.31343 21.3965 8.71441 21.3965 9.14364C21.3965 9.57315 21.3137 9.97413 21.1479 10.3466C20.9823 10.7188 20.7518 11.0444 20.4563 11.3236C20.1608 11.603 19.818 11.8209 19.4291 11.9785C19.04 12.1363 18.6219 12.2147 18.1753 12.2147C17.7285 12.2147 17.3073 12.1363 16.9107 11.9785Z" fill="white"/>
<path fill-rule="evenodd" clip-rule="evenodd" d="M38.1799 11.9787V21.7508H35.1965V6.50201H37.5098L45.5086 16.5103V6.52361H48.4918V21.7508H46.0709L38.1799 11.9787Z" fill="#222222"/>
<path fill-rule="evenodd" clip-rule="evenodd" d="M53.8097 14.1265C53.8097 14.785 53.9073 15.4225 54.1016 16.0378C54.2962 16.6537 54.5774 17.1976 54.9448 17.6703C55.3125 18.1427 55.7626 18.5221 56.2959 18.8084C56.8288 19.0948 57.4343 19.2379 58.1119 19.2379C58.8037 19.2379 59.4125 19.0915 59.9385 18.7976C60.4645 18.5044 60.9077 18.1139 61.2681 17.6274C61.6283 17.1405 61.9023 16.5928 62.0896 15.9841C62.2769 15.3757 62.3708 14.7565 62.3708 14.1265C62.3708 13.468 62.2699 12.8305 62.0681 12.2149C61.866 11.5996 61.5817 11.0551 61.214 10.5827C60.8467 10.11 60.3998 9.7345 59.8738 9.45509C59.3476 9.17595 58.753 9.0361 58.0902 9.0361C57.3986 9.0361 56.7892 9.18315 56.2635 9.47669C55.7373 9.77022 55.2904 10.1568 54.923 10.6362C54.5557 11.1163 54.278 11.6602 54.091 12.2686C53.9034 12.8773 53.8097 13.4965 53.8097 14.1265ZM58.0687 21.8582C56.9877 21.8582 56.0001 21.6403 55.1067 21.2033C54.2131 20.7666 53.4454 20.1867 52.8046 19.4634C52.1632 18.7406 51.6695 17.9137 51.3236 16.9827C50.9777 16.0522 50.8049 15.1004 50.8049 14.1265C50.8049 13.1099 50.9886 12.1363 51.356 11.2055C51.7236 10.2751 52.2351 9.45176 52.891 8.73564C53.5469 8.01979 54.3212 7.45072 55.2149 7.02813C56.1086 6.6061 57.0811 6.39453 58.1336 6.39453C59.2146 6.39453 60.2016 6.62022 61.0953 7.07105C61.9887 7.52188 62.7524 8.11256 63.3866 8.84308C64.021 9.57333 64.511 10.4038 64.857 11.3343C65.2029 12.265 65.3757 13.2102 65.3757 14.1691C65.3757 15.186 65.192 16.1561 64.8246 17.0796C64.457 18.0031 63.9488 18.819 63.3005 19.5279C62.6518 20.2365 61.8805 20.8023 60.9871 21.2246C60.0935 21.6472 59.1207 21.8582 58.0687 21.8582Z" fill="#222222"/>
<path fill-rule="evenodd" clip-rule="evenodd" d="M77.7413 17.4768C77.7413 17.1332 77.6797 16.8003 77.5576 16.4783C77.4349 16.1559 77.2691 15.8735 77.0603 15.6298C76.8513 15.3864 76.6026 15.1931 76.3147 15.0499C76.0262 14.907 75.7092 14.835 75.3633 14.835H69.8723V20.0755H75.212C75.5721 20.0755 75.9038 20.004 76.2062 19.8606C76.509 19.718 76.7754 19.5277 77.0062 19.2918C77.2365 19.0553 77.4171 18.7798 77.5467 18.4646C77.6766 18.15 77.7413 17.8202 77.7413 17.4768ZM69.8723 8.17722V13.2673H74.7579C75.1038 13.2673 75.4207 13.1995 75.7092 13.0632C75.9972 12.9273 76.2461 12.7448 76.4552 12.5155C76.6639 12.2868 76.8295 12.0181 76.9522 11.7102C77.0745 11.4023 77.1358 11.0766 77.1358 10.7327C77.1358 10.3752 77.0781 10.0387 76.963 9.72355C76.8476 9.40869 76.6926 9.13648 76.4984 8.90746C76.3038 8.67872 76.0658 8.49928 75.7848 8.37023C75.5038 8.24146 75.2044 8.17722 74.8878 8.17722H69.8723ZM79.7087 17.8202C79.7087 18.4076 79.5896 18.9448 79.3519 19.4314C79.1141 19.9179 78.7899 20.333 78.3791 20.677C77.9682 21.0206 77.4926 21.2856 76.9522 21.4717C76.4117 21.6578 75.8313 21.7509 75.212 21.7509H67.9264V6.50183H75.5579C76.0908 6.50183 76.5742 6.61648 77.0062 6.84549C77.4386 7.07478 77.806 7.37192 78.1087 7.73691C78.4114 8.10189 78.6455 8.51728 78.8114 8.98251C78.977 9.44801 79.06 9.91685 79.06 10.3893C79.06 11.1483 78.8688 11.8498 78.4872 12.4942C78.1053 13.1383 77.5612 13.6182 76.8549 13.9331C77.734 14.1909 78.4295 14.6672 78.9413 15.3612C79.4528 16.056 79.7087 16.8754 79.7087 17.8202Z" fill="#424242"/>
<path fill-rule="evenodd" clip-rule="evenodd" d="M84.3998 14.5559H89.0479C89.451 14.5559 89.8153 14.4698 90.1395 14.2981C90.4639 14.1264 90.7413 13.8938 90.9718 13.6003C91.202 13.3067 91.3827 12.9667 91.5126 12.5798C91.6419 12.1935 91.7069 11.7925 91.7069 11.3771C91.7069 10.9479 91.631 10.5433 91.4797 10.1639C91.3283 9.78454 91.1265 9.44808 90.8748 9.15426C90.6223 8.86128 90.3268 8.63171 89.9884 8.46721C89.6494 8.30272 89.2926 8.2202 88.918 8.2202H84.3998V14.5559ZM82.4542 21.7507V6.50189H89.0262C89.7032 6.50189 90.3268 6.64146 90.8963 6.92088C91.4655 7.20001 91.9555 7.57248 92.3664 8.03743C92.777 8.50322 93.0975 9.02549 93.3283 9.60537C93.5586 10.1852 93.674 10.7759 93.674 11.3771C93.674 11.9072 93.5984 12.4189 93.4471 12.9127C93.296 13.407 93.0797 13.8545 92.7987 14.2552C92.5174 14.6562 92.1788 15.0001 91.7824 15.2862C91.3857 15.5728 90.9428 15.7802 90.4531 15.909L94.1715 21.7507H91.9664L88.4642 16.274H84.3998V21.7507H82.4542Z" fill="#424242"/>
<path fill-rule="evenodd" clip-rule="evenodd" d="M97.8245 14.1265C97.8245 14.8997 97.9505 15.6479 98.2028 16.3707C98.455 17.094 98.8115 17.7345 99.2729 18.2931C99.7342 18.8514 100.289 19.2953 100.938 19.6245C101.586 19.9541 102.307 20.1186 103.099 20.1186C103.921 20.1186 104.656 19.9433 105.305 19.5921C105.953 19.2418 106.505 18.7835 106.959 18.2178C107.412 17.6523 107.758 17.0118 107.996 16.2956C108.234 15.5798 108.353 14.8567 108.353 14.1265C108.353 13.3531 108.226 12.6054 107.974 11.882C107.722 11.159 107.362 10.5218 106.893 9.97044C106.425 9.41964 105.87 8.97905 105.229 8.64979C104.588 8.32053 103.878 8.15548 103.099 8.15548C102.278 8.15548 101.543 8.32773 100.895 8.67112C100.246 9.01478 99.6946 9.46589 99.2405 10.0244C98.7867 10.5827 98.4369 11.2199 98.1922 11.9358C97.9469 12.6519 97.8245 13.3821 97.8245 14.1265ZM103.078 21.8582C101.997 21.8582 101.013 21.6403 100.127 21.2033C99.2405 20.7666 98.4804 20.1867 97.8462 19.4634C97.2118 18.7406 96.7221 17.9137 96.3761 16.9827C96.0302 16.0522 95.8571 15.1004 95.8571 14.1265C95.8571 13.1099 96.0411 12.1363 96.4088 11.2055C96.7761 10.2751 97.2843 9.45176 97.9329 8.73564C98.5813 8.01979 99.3487 7.45072 100.235 7.02813C101.121 6.6061 102.083 6.39453 103.121 6.39453C104.202 6.39453 105.182 6.62022 106.061 7.07105C106.94 7.52188 107.697 8.11256 108.331 8.84308C108.965 9.57333 109.455 10.3999 109.801 11.3235C110.147 12.247 110.32 13.1886 110.32 14.1478C110.32 15.1647 110.136 16.1383 109.769 17.0688C109.401 17.9995 108.897 18.819 108.256 19.5279C107.614 20.2365 106.851 20.8023 105.964 21.2246C105.078 21.6472 104.115 21.8582 103.078 21.8582Z" fill="#424242"/>
<path fill-rule="evenodd" clip-rule="evenodd" d="M113.044 21.7508V6.52361H114.989V14.9424L122.902 6.50201H124.999L118.838 13.2243L125.345 21.7508H123.226L117.649 14.3412L114.989 17.0902V21.7508H113.044Z" fill="#424242"/>
<path fill-rule="evenodd" clip-rule="evenodd" d="M137.494 20.0328V21.7508H127.074V6.50201H137.3V8.22032H129.02V13.1601H136.219V14.7707H129.02V20.0328H137.494Z" fill="#424242"/>
<path fill-rule="evenodd" clip-rule="evenodd" d="M142.207 14.5559H146.855C147.258 14.5559 147.622 14.4698 147.946 14.2981C148.271 14.1264 148.548 13.8938 148.779 13.6003C149.009 13.3067 149.19 12.9667 149.319 12.5798C149.449 12.1935 149.514 11.7925 149.514 11.3771C149.514 10.9479 149.438 10.5433 149.287 10.1639C149.135 9.78454 148.933 9.44808 148.682 9.15426C148.429 8.86128 148.134 8.63171 147.795 8.46721C147.456 8.30272 147.1 8.2202 146.725 8.2202H142.207V14.5559ZM140.261 21.7507V6.50189H146.833C147.51 6.50189 148.134 6.64146 148.703 6.92088C149.272 7.20001 149.762 7.57248 150.173 8.03743C150.584 8.50322 150.904 9.02549 151.135 9.60537C151.365 10.1852 151.481 10.7759 151.481 11.3771C151.481 11.9072 151.405 12.4189 151.254 12.9127C151.103 13.407 150.887 13.8545 150.606 14.2552C150.324 14.6562 149.986 15.0001 149.589 15.2862C149.193 15.5728 148.75 15.7802 148.26 15.909L151.978 21.7507H149.773L146.271 16.274H142.207V21.7507H140.261Z" fill="#424242"/>
</svg>
