<svg width="202" height="39" viewBox="0 0 202 39" fill="none" xmlns="http://www.w3.org/2000/svg">
<path fill-rule="evenodd" clip-rule="evenodd" d="M46.5222 18.8512H49.0429V4.36504H44.7345V7.41332H42.2138V2.10071H58.5387V7.41332H56.018V4.36504H51.7099V18.8512H54.2306V21.2027H46.5222V18.8512Z" fill="#00B0AF"/>
<path fill-rule="evenodd" clip-rule="evenodd" d="M61.3439 13.5467H68.2393C68.1248 11.5993 66.9231 10.273 64.8344 10.273C63.1751 10.273 61.6587 11.3454 61.3439 13.5467ZM61.3439 15.353C61.6872 17.6673 63.4039 18.796 65.8073 18.796C67.3809 18.796 68.7257 18.3165 70.1851 17.498L69.9848 19.7275C68.6972 20.5178 67.1236 20.8849 65.4354 20.8849C61.4582 20.8849 58.7686 18.3446 58.7686 14.6193C58.7686 11.2042 61.1436 8.26898 64.8918 8.26898C68.6972 8.26898 70.7001 10.9504 70.7001 14.0547C70.7001 14.5064 70.643 14.9862 70.5856 15.353H61.3439Z" fill="#00B0AF"/>
<path fill-rule="evenodd" clip-rule="evenodd" d="M72.8466 14.5347C72.8466 11.2607 75.5076 8.2691 79.0267 8.2691C82.0882 8.2691 84.3202 10.2447 84.3202 12.1074C84.3202 13.18 83.5761 13.9137 82.5749 13.9137C81.7737 13.9137 81.0296 13.2927 81.0296 12.3897C81.0296 11.9947 81.2299 11.5994 81.5446 11.3737C81.2587 10.8091 80.2284 10.2729 79.0267 10.2729C77.3674 10.2729 75.3357 11.656 75.3357 14.591C75.3357 17.1028 77.1957 18.7962 79.7422 18.7962C81.1727 18.7962 82.4604 18.3727 83.9766 17.4978L83.7478 19.7276C82.489 20.5177 81.0296 20.8848 79.5132 20.8848C75.6793 20.8848 72.8466 18.2882 72.8466 14.5347Z" fill="#00B0AF"/>
<path fill-rule="evenodd" clip-rule="evenodd" d="M86.4092 2.08835V0H90.787V10.5268C91.9601 9.28536 93.4192 8.26911 95.1645 8.26911C96.5667 8.26911 97.6253 8.74893 98.2548 9.56741C98.7984 10.2729 99.0846 11.2326 99.0846 12.3615V18.6268H101.002V20.6588H94.7926V18.6268H96.6238V12.8977C96.6238 12.1074 96.4521 11.5712 96.1376 11.1762C95.7654 10.7246 95.1933 10.4986 94.4495 10.4986C93.1044 10.4986 91.817 11.2889 90.787 12.3331V18.6268H92.6182V20.6588H86.4092V18.6268H88.3262V2.08835H86.4092Z" fill="#00B0AF"/>
<path fill-rule="evenodd" clip-rule="evenodd" d="M106.925 10.6117C108.098 9.36977 109.643 8.26898 111.417 8.26898C112.962 8.26898 114.021 8.86177 114.65 9.82141C115.051 10.4987 115.28 11.3454 115.28 12.3614V18.6267H117.197V20.6589H110.988V18.6267H112.819V12.8978C112.819 12.3048 112.733 11.8252 112.533 11.4584C112.19 10.8092 111.589 10.4987 110.702 10.4987C109.357 10.4987 108.069 11.289 107.011 12.3332V18.6267H108.842V20.6589H102.662V18.6267H104.579V10.5835H102.662V8.49493H106.925V10.6117Z" fill="#00B0AF"/>
<path fill-rule="evenodd" clip-rule="evenodd" d="M129.043 14.591C129.043 12.1076 127.441 10.3295 125.152 10.3295C122.834 10.3295 121.232 12.1076 121.232 14.591C121.232 17.0746 122.834 18.8243 125.152 18.8243C127.441 18.8243 129.043 17.0746 129.043 14.591ZM118.714 14.591C118.714 11.1761 121.232 8.26904 125.152 8.26904C129.071 8.26904 131.589 11.148 131.589 14.591C131.589 17.9779 129.043 20.8847 125.152 20.8847C121.203 20.8847 118.714 18.006 118.714 14.591Z" fill="#00B0AF"/>
<path fill-rule="evenodd" clip-rule="evenodd" d="M134.108 16.9336C134.108 15.7482 134.823 14.9861 135.825 14.9861C136.855 14.9861 137.541 15.7482 137.541 16.5383C137.541 17.0463 137.398 17.4134 137.169 17.7518C137.827 18.3164 139.086 18.7399 140.603 18.7399C142.892 18.7399 144.351 17.6391 144.351 15.8046C144.351 14.0549 142.634 13.2362 140.631 12.5025C137.255 11.2606 134.823 10.1318 134.823 6.82999C134.823 3.9229 137.169 1.74976 140.803 1.74976C144.094 1.74976 146.669 3.4997 146.669 5.55986C146.669 6.71701 145.925 7.39434 145.009 7.39434C143.922 7.39434 143.264 6.60404 143.264 5.75738C143.264 5.30574 143.407 5.02369 143.579 4.76982C143.063 4.31818 141.948 3.97951 140.774 3.97951C138.686 3.97951 137.427 5.08005 137.427 6.63222C137.427 8.41034 139.115 9.1722 141.261 9.99069C144.494 11.176 146.926 12.3332 146.926 15.6071C146.926 18.9937 144.237 20.9976 140.546 20.9976C136.855 20.9976 134.108 18.9371 134.108 16.9336Z" fill="#1F2171"/>
<path fill-rule="evenodd" clip-rule="evenodd" d="M151.934 13.5467H158.829C158.715 11.5993 157.513 10.273 155.424 10.273C153.765 10.273 152.248 11.3454 151.934 13.5467ZM151.934 15.353C152.277 17.6673 153.994 18.796 156.397 18.796C157.971 18.796 159.316 18.3165 160.775 17.498L160.575 19.7275C159.287 20.5178 157.713 20.8849 156.025 20.8849C152.048 20.8849 149.359 18.3446 149.359 14.6193C149.359 11.2042 151.733 8.26898 155.482 8.26898C159.287 8.26898 161.29 10.9504 161.29 14.0547C161.29 14.5064 161.233 14.9862 161.175 15.353H151.934Z" fill="#1F2171"/>
<path fill-rule="evenodd" clip-rule="evenodd" d="M173.508 10.0473C173.508 10.9222 172.793 11.6843 171.934 11.6843C171.105 11.6843 170.532 11.1761 170.303 10.6399C169.388 10.9222 168.329 11.9382 167.728 13.0951V18.6267H169.989V20.6589H163.379V18.6267H165.296V10.5835H163.379V8.49492H167.642V11.2606C168.615 9.59545 170.046 8.26923 171.477 8.26923C172.821 8.26923 173.508 9.08771 173.508 10.0473Z" fill="#1F2171"/>
<path fill-rule="evenodd" clip-rule="evenodd" d="M175.568 10.5835H174.023V8.49512H180.003V10.4987H178.115L181.463 17.8084L184.81 10.4987H182.836V8.49512H188.816V10.5835H187.271L182.207 20.9975H180.633L175.568 10.5835Z" fill="#1F2171"/>
<path fill-rule="evenodd" clip-rule="evenodd" d="M192.193 13.5467H199.089C198.974 11.5993 197.772 10.273 195.684 10.273C194.024 10.273 192.508 11.3454 192.193 13.5467ZM192.193 15.353C192.536 17.6673 194.253 18.796 196.657 18.796C198.23 18.796 199.575 18.3165 201.034 17.498L200.834 19.7275C199.546 20.5178 197.973 20.8849 196.285 20.8849C192.307 20.8849 189.618 18.3446 189.618 14.6193C189.618 11.2042 191.993 8.26898 195.741 8.26898C199.546 8.26898 201.549 10.9504 201.549 14.0547C201.549 14.5064 201.492 14.9862 201.435 15.353H192.193Z" fill="#1F2171"/>
<path fill-rule="evenodd" clip-rule="evenodd" d="M9.17934 29.3964C5.89292 26.9827 3.75391 23.1039 3.75391 18.7207C3.75391 11.3969 9.69773 5.4603 17.0318 5.4603C22.6819 5.4603 28.6509 7.32142 32.1895 10.9858C29.3677 5.4854 23.6457 1.71295 17.0318 1.71295C7.62417 1.71295 0 9.32702 0 18.7207C0 19.0364 0.0296074 19.3425 0.04545 19.655C0.487743 24.4855 4.35151 27.7387 9.17934 29.3964Z" fill="#1F2171"/>
<path fill-rule="evenodd" clip-rule="evenodd" d="M25.5817 8.2423C22.9423 7.18807 20.0064 6.75854 17.0313 6.75854C12.8938 6.75854 9.24846 8.85048 7.09698 12.033C6.69702 12.6214 6.31368 13.2344 6.06254 13.9105C9.02796 12.6713 17.1845 17.0791 21.6921 13.3085C25.0188 10.5218 31.6496 13.8551 30.0744 21.2435C28.773 27.3372 23.5029 31.9806 17.0313 31.9806C11.3799 31.9806 5.41325 30.1208 1.87543 26.4575C4.69748 31.9548 10.4185 35.7282 17.0313 35.7282C25.4294 35.7282 32.3612 29.6522 33.8107 21.6757C34.5275 17.7155 32.985 13.5969 30.2731 11.1353C28.8808 9.87266 27.2936 8.92608 25.5817 8.2423Z" fill="#00B0AF"/>
<path fill-rule="evenodd" clip-rule="evenodd" d="M10.2969 11.9026C11.1911 10.5843 18.1345 8.09966 22.332 9.07441C22.5208 9.11591 22.6382 9.30548 22.5949 9.49402C22.5505 9.68129 22.3627 9.79913 22.1726 9.75635C18.1756 8.82848 11.5194 11.1279 10.2969 11.9026Z" fill="white"/>
<path fill-rule="evenodd" clip-rule="evenodd" d="M46.6138 35.278C47.5576 35.278 48.1871 34.8957 48.1871 34.1436C48.1871 33.4153 47.6061 33.0098 46.5774 33.0098H45.5365V35.278H46.6138ZM46.4683 31.9351C47.4246 31.9351 47.957 31.5052 47.957 30.8248C47.957 30.1565 47.4004 29.7863 46.4322 29.7863H45.5365V31.9351H46.4683ZM43.2733 35.2539H44.1808V29.8101H43.2733V28.6043H46.4564C48.405 28.6043 49.3613 29.4876 49.3613 30.6696C49.3613 31.577 48.7922 32.1618 48.0056 32.4244C48.9979 32.7108 49.5911 33.2841 49.5911 34.263C49.5911 35.5644 48.526 36.4597 46.5896 36.4597H43.2733V35.2539Z" fill="#1F2171"/>
<path fill-rule="evenodd" clip-rule="evenodd" d="M51.2125 35.8628C51.0432 35.5882 50.9463 35.2301 50.9463 34.812V32.3291H50.1594V31.2307H52.2654V34.49C52.2654 34.7167 52.3017 34.884 52.3745 35.0269C52.4955 35.2539 52.7134 35.3733 53.0282 35.3733C53.4879 35.3733 53.972 35.1104 54.3956 34.7646V32.3291H53.5725V31.2307H55.7149V35.3853H56.5016V36.4597H54.4441V35.6241C53.9356 36.1136 53.3668 36.5553 52.5924 36.5553C51.9509 36.5553 51.4787 36.2927 51.2125 35.8628Z" fill="#1F2171"/>
<path fill-rule="evenodd" clip-rule="evenodd" d="M61.0764 33.0932C60.6528 33.0932 60.3621 32.8424 60.3621 32.4484C60.3621 32.3648 60.3621 32.2931 60.3863 32.2216C60.1684 32.1379 59.9022 32.0902 59.636 32.0902C59.0431 32.0902 58.7524 32.3528 58.7524 32.6277C58.7524 32.9259 59.055 33.0811 59.8661 33.296C61.1369 33.6304 61.8752 33.9408 61.8752 34.8838C61.8752 35.982 60.8341 36.5672 59.636 36.5672C58.8252 36.5672 57.9536 36.2805 57.6027 35.9344C57.3848 35.7195 57.3001 35.5048 57.3001 35.2302C57.3001 34.8482 57.5905 34.5257 58.0021 34.5257C58.3652 34.5257 58.7163 34.7644 58.7163 35.2181C58.7163 35.2899 58.7041 35.3613 58.6919 35.4331C58.934 35.5286 59.2729 35.6001 59.6482 35.6001C60.1806 35.6001 60.6164 35.4213 60.6164 35.0391C60.6164 34.7762 60.3863 34.6212 59.5755 34.4063C58.1112 34.0244 57.4939 33.678 57.4939 32.7827C57.4939 31.9708 58.1715 31.1234 59.6601 31.1234C60.3016 31.1234 61.0764 31.3622 61.4392 31.7203C61.6332 31.9114 61.7298 32.1379 61.7298 32.3887C61.7298 32.8065 61.4636 33.0932 61.0764 33.0932Z" fill="#1F2171"/>
<path fill-rule="evenodd" clip-rule="evenodd" d="M63.2062 29.5713C63.2062 29.0937 63.6298 28.7118 64.1017 28.7118C64.5738 28.7118 64.9733 29.0937 64.9733 29.5713C64.9733 30.0488 64.5494 30.4307 64.0775 30.4307C63.6053 30.4307 63.2062 30.0488 63.2062 29.5713ZM62.7462 35.3852H63.557V32.3293H62.7462V31.2308H64.8764V35.3852H65.6631V36.4598H62.7462V35.3852Z" fill="#1F2171"/>
<path fill-rule="evenodd" clip-rule="evenodd" d="M68.4829 32.0665C68.9914 31.5769 69.5602 31.1353 70.3346 31.1353C70.9639 31.1353 71.4239 31.3858 71.7023 31.8039C71.8838 32.0903 71.9807 32.4484 71.9807 32.8783V35.3852H72.7676V36.4596H69.9352V35.3852H70.6616V33.2005C70.6616 32.9856 70.6253 32.7948 70.5525 32.6633C70.4315 32.4364 70.2136 32.3173 69.8988 32.3173C69.4391 32.3173 68.9548 32.5798 68.5314 32.9257V35.3852H69.2573V36.4596H66.4254V35.3852H67.2121V32.329H66.4254V31.2306H68.4829V32.0665Z" fill="#1F2171"/>
<path fill-rule="evenodd" clip-rule="evenodd" d="M74.6553 33.3796H77.2332C77.2091 32.6633 76.7372 32.1858 75.9625 32.1858C75.3815 32.1858 74.8005 32.5201 74.6553 33.3796ZM74.6675 34.287C74.8491 35.0986 75.5267 35.4567 76.4102 35.4567C77.052 35.4567 77.7176 35.2538 78.3347 34.9077L78.2259 36.0777C77.669 36.4002 76.9912 36.5552 76.2167 36.5552C74.486 36.5552 73.2877 35.4808 73.2877 33.8571C73.2877 32.3767 74.3408 31.1353 75.9747 31.1353C77.669 31.1353 78.5526 32.2576 78.5526 33.6422C78.5526 33.8451 78.5284 34.1079 78.4921 34.287H74.6675Z" fill="#1F2171"/>
<path fill-rule="evenodd" clip-rule="evenodd" d="M83.1878 33.0932C82.7642 33.0932 82.4736 32.8424 82.4736 32.4484C82.4736 32.3648 82.4736 32.2931 82.498 32.2216C82.2801 32.1379 82.0136 32.0902 81.7477 32.0902C81.1545 32.0902 80.8639 32.3528 80.8639 32.6277C80.8639 32.9259 81.1667 33.0811 81.9775 33.296C83.2483 33.6304 83.9867 33.9408 83.9867 34.8838C83.9867 35.982 82.9458 36.5672 81.7477 36.5672C80.9366 36.5672 80.0653 36.2805 79.7141 35.9344C79.4965 35.7195 79.4116 35.5048 79.4116 35.2302C79.4116 34.8482 79.7022 34.5257 80.1136 34.5257C80.4767 34.5257 80.8278 34.7644 80.8278 35.2181C80.8278 35.2899 80.8156 35.3613 80.8034 35.4331C81.0454 35.5286 81.3846 35.6001 81.7596 35.6001C82.2921 35.6001 82.7279 35.4213 82.7279 35.0391C82.7279 34.7762 82.498 34.6212 81.6869 34.4063C80.2227 34.0244 79.6053 33.678 79.6053 32.7827C79.6053 31.9708 80.2829 31.1234 81.7719 31.1234C82.4133 31.1234 83.1878 31.3622 83.5509 31.7203C83.7446 31.9114 83.8415 32.1379 83.8415 32.3887C83.8415 32.8065 83.575 33.0932 83.1878 33.0932Z" fill="#1F2171"/>
<path fill-rule="evenodd" clip-rule="evenodd" d="M88.7307 33.0932C88.3071 33.0932 88.0165 32.8424 88.0165 32.4484C88.0165 32.3648 88.0165 32.2931 88.0409 32.2216C87.823 32.1379 87.5566 32.0902 87.2906 32.0902C86.6974 32.0902 86.4071 32.3528 86.4071 32.6277C86.4071 32.9259 86.7096 33.0811 87.5205 33.296C88.7912 33.6304 89.5296 33.9408 89.5296 34.8838C89.5296 35.982 88.4887 36.5672 87.2906 36.5672C86.4795 36.5672 85.6082 36.2805 85.257 35.9344C85.0394 35.7195 84.9545 35.5048 84.9545 35.2302C84.9545 34.8482 85.2451 34.5257 85.6567 34.5257C86.0196 34.5257 86.3707 34.7644 86.3707 35.2181C86.3707 35.2899 86.3585 35.3613 86.3463 35.4331C86.5883 35.5286 86.9275 35.6001 87.3025 35.6001C87.8352 35.6001 88.2708 35.4213 88.2708 35.0391C88.2708 34.7762 88.0409 34.6212 87.2301 34.4063C85.7656 34.0244 85.1482 33.678 85.1482 32.7827C85.1482 31.9708 85.8258 31.1234 87.3148 31.1234C87.9563 31.1234 88.7307 31.3622 89.0938 31.7203C89.2875 31.9114 89.3844 32.1379 89.3844 32.3887C89.3844 32.8065 89.118 33.0932 88.7307 33.0932Z" fill="#1F2171"/>
<path fill-rule="evenodd" clip-rule="evenodd" d="M93.1599 34.7763C93.1599 34.2155 93.4988 33.8451 93.9949 33.8451C94.5276 33.8451 94.8665 34.2391 94.8665 34.6213C94.8665 34.8122 94.8301 34.9554 94.7574 35.0986C95.048 35.3017 95.4958 35.4329 96.0163 35.4329C96.8879 35.4329 97.4444 35.0509 97.4444 34.3705C97.4444 33.7257 96.7788 33.4155 95.9799 33.1406C94.5034 32.6155 93.4625 32.1497 93.4625 30.6934C93.4625 29.4399 94.4912 28.4611 96.1009 28.4611C97.5896 28.4611 98.7394 29.2129 98.7394 30.1564C98.7394 30.7175 98.3885 31.0397 97.9285 31.0397C97.3717 31.0397 97.0572 30.6337 97.0572 30.2399C97.0572 30.0488 97.0935 29.9653 97.1418 29.8698C96.9239 29.7386 96.585 29.631 96.0887 29.631C95.3023 29.631 94.8423 30.025 94.8423 30.5978C94.8423 31.2426 95.508 31.529 96.3066 31.8157C97.735 32.317 98.8121 32.8066 98.8121 34.2629C98.8121 35.7552 97.6382 36.6031 96.0043 36.6031C94.4307 36.6031 93.1599 35.7316 93.1599 34.7763Z" fill="#1F2171"/>
<path fill-rule="evenodd" clip-rule="evenodd" d="M104.016 33.8452C104.016 32.8902 103.411 32.2216 102.552 32.2216C101.692 32.2216 101.087 32.8902 101.087 33.8452C101.087 34.8005 101.692 35.4689 102.552 35.4689C103.411 35.4689 104.016 34.8005 104.016 33.8452ZM99.7316 33.8452C99.7316 32.4127 100.821 31.1354 102.552 31.1354C104.307 31.1354 105.372 32.3886 105.372 33.8452C105.372 35.278 104.282 36.5553 102.552 36.5553C100.797 36.5553 99.7316 35.3018 99.7316 33.8452Z" fill="#1F2171"/>
<path fill-rule="evenodd" clip-rule="evenodd" d="M106.097 35.3852H106.921V28.8192H106.097V27.7207H108.24V35.3852H109.027V36.4596H106.097V35.3852Z" fill="#1F2171"/>
<path fill-rule="evenodd" clip-rule="evenodd" d="M110.479 35.8628C110.309 35.5882 110.213 35.2301 110.213 34.812V32.3291H109.426V31.2307H111.532V34.49C111.532 34.7167 111.568 34.884 111.641 35.0269C111.762 35.2539 111.98 35.3733 112.294 35.3733C112.754 35.3733 113.238 35.1104 113.662 34.7646V32.3291H112.839V31.2307H114.981V35.3853H115.768V36.4597H113.71V35.6241C113.202 36.1136 112.633 36.5553 111.859 36.5553C111.217 36.5553 110.745 36.2927 110.479 35.8628Z" fill="#1F2171"/>
<path fill-rule="evenodd" clip-rule="evenodd" d="M117.401 35.8391C117.28 35.6242 117.22 35.3495 117.22 35.0152V32.3292H116.191V31.2307H117.22V30.1325L118.527 29.5712V31.2307H120.137V32.3292H118.527V34.7647C118.527 34.9317 118.551 35.0391 118.612 35.1466C118.709 35.3137 118.902 35.3972 119.169 35.3972C119.507 35.3972 119.895 35.266 120.21 35.1226L120.1 36.2449C119.737 36.4239 119.314 36.5554 118.83 36.5554C118.188 36.5554 117.668 36.3404 117.401 35.8391Z" fill="#1F2171"/>
<path fill-rule="evenodd" clip-rule="evenodd" d="M121.395 29.5713C121.395 29.0937 121.819 28.7118 122.291 28.7118C122.763 28.7118 123.162 29.0937 123.162 29.5713C123.162 30.0488 122.739 30.4307 122.266 30.4307C121.795 30.4307 121.395 30.0488 121.395 29.5713ZM120.935 35.3852H121.746V32.3293H120.935V31.2308H123.065V35.3852H123.852V36.4598H120.935V35.3852Z" fill="#1F2171"/>
<path fill-rule="evenodd" clip-rule="evenodd" d="M128.935 33.8452C128.935 32.8902 128.33 32.2216 127.471 32.2216C126.611 32.2216 126.006 32.8902 126.006 33.8452C126.006 34.8005 126.611 35.4689 127.471 35.4689C128.33 35.4689 128.935 34.8005 128.935 33.8452ZM124.651 33.8452C124.651 32.4127 125.74 31.1354 127.471 31.1354C129.226 31.1354 130.291 32.3886 130.291 33.8452C130.291 35.278 129.201 36.5553 127.471 36.5553C125.716 36.5553 124.651 35.3018 124.651 33.8452Z" fill="#1F2171"/>
<path fill-rule="evenodd" clip-rule="evenodd" d="M133.135 32.0665C133.643 31.5769 134.212 31.1353 134.986 31.1353C135.616 31.1353 136.076 31.3858 136.354 31.8039C136.536 32.0903 136.632 32.4484 136.632 32.8783V35.3852H137.419V36.4596H134.587V35.3852H135.313V33.2005C135.313 32.9856 135.277 32.7948 135.204 32.6633C135.083 32.4364 134.866 32.3173 134.551 32.3173C134.091 32.3173 133.607 32.5798 133.183 32.9257V35.3852H133.909V36.4596H131.077V35.3852H131.864V32.329H131.077V31.2306H133.135V32.0665Z" fill="#1F2171"/>
<path fill-rule="evenodd" clip-rule="evenodd" d="M141.788 33.0932C141.365 33.0932 141.074 32.8424 141.074 32.4484C141.074 32.3648 141.074 32.2931 141.098 32.2216C140.88 32.1379 140.614 32.0902 140.348 32.0902C139.755 32.0902 139.464 32.3528 139.464 32.6277C139.464 32.9259 139.767 33.0811 140.578 33.296C141.849 33.6304 142.587 33.9408 142.587 34.8838C142.587 35.982 141.546 36.5672 140.348 36.5672C139.537 36.5672 138.666 36.2805 138.315 35.9344C138.097 35.7195 138.012 35.5048 138.012 35.2302C138.012 34.8482 138.303 34.5257 138.714 34.5257C139.077 34.5257 139.428 34.7644 139.428 35.2181C139.428 35.2899 139.416 35.3613 139.404 35.4331C139.646 35.5286 139.985 35.6001 140.36 35.6001C140.893 35.6001 141.328 35.4213 141.328 35.0391C141.328 34.7762 141.098 34.6212 140.288 34.4063C138.823 34.0244 138.206 33.678 138.206 32.7827C138.206 31.9708 138.883 31.1234 140.372 31.1234C141.014 31.1234 141.788 31.3622 142.151 31.7203C142.345 31.9114 142.442 32.1379 142.442 32.3887C142.442 32.8065 142.176 33.0932 141.788 33.0932Z" fill="#1F2171"/>
<path fill-rule="evenodd" clip-rule="evenodd" d="M147.052 35.8391C146.931 35.6242 146.871 35.3495 146.871 35.0152V32.3292H145.842V31.2307H146.871V30.1325L148.178 29.5712V31.2307H149.788V32.3292H148.178V34.7647C148.178 34.9317 148.202 35.0391 148.263 35.1466C148.36 35.3137 148.553 35.3972 148.819 35.3972C149.158 35.3972 149.546 35.266 149.86 35.1226L149.752 36.2449C149.389 36.4239 148.965 36.5554 148.481 36.5554C147.839 36.5554 147.319 36.3404 147.052 35.8391Z" fill="#1F2171"/>
<path fill-rule="evenodd" clip-rule="evenodd" d="M154.774 33.8452C154.774 32.8902 154.169 32.2216 153.31 32.2216C152.45 32.2216 151.845 32.8902 151.845 33.8452C151.845 34.8005 152.45 35.4689 153.31 35.4689C154.169 35.4689 154.774 34.8005 154.774 33.8452ZM150.49 33.8452C150.49 32.4127 151.579 31.1354 153.31 31.1354C155.065 31.1354 156.13 32.3886 156.13 33.8452C156.13 35.278 155.04 36.5553 153.31 36.5553C151.555 36.5553 150.49 35.3018 150.49 33.8452Z" fill="#1F2171"/>
<path fill-rule="evenodd" clip-rule="evenodd" d="M164.456 31.1709C164.456 30.3473 163.766 29.8101 162.786 29.8101H161.926V32.6513C162.072 32.6634 162.265 32.6754 162.822 32.6754C163.851 32.6754 164.456 32.1023 164.456 31.1709ZM159.651 35.2538H160.559V29.8101H159.651V28.6042H162.859C164.565 28.6042 165.872 29.5713 165.872 31.1709C165.872 32.9738 164.577 33.8571 162.701 33.8571C162.326 33.8571 162.096 33.8571 161.926 33.8451V35.2538H162.919V36.4599H159.651V35.2538Z" fill="#1F2171"/>
<path fill-rule="evenodd" clip-rule="evenodd" d="M170.786 33.8452C170.786 32.8902 170.181 32.2216 169.321 32.2216C168.462 32.2216 167.857 32.8902 167.857 33.8452C167.857 34.8005 168.462 35.4689 169.321 35.4689C170.181 35.4689 170.786 34.8005 170.786 33.8452ZM166.501 33.8452C166.501 32.4127 167.591 31.1354 169.321 31.1354C171.076 31.1354 172.141 32.3886 172.141 33.8452C172.141 35.278 171.052 36.5553 169.321 36.5553C167.566 36.5553 166.501 35.3018 166.501 33.8452Z" fill="#1F2171"/>
<path fill-rule="evenodd" clip-rule="evenodd" d="M173.061 32.3291H172.444V31.2307H175.155V32.2694H174.392L175.663 34.9913L176.934 32.2694H176.135V31.2307H178.834V32.3291H178.217L176.111 36.5553H175.167L173.061 32.3291Z" fill="#1F2171"/>
<path fill-rule="evenodd" clip-rule="evenodd" d="M180.504 33.3796H183.082C183.058 32.6633 182.586 32.1858 181.811 32.1858C181.23 32.1858 180.65 32.5201 180.504 33.3796ZM180.516 34.287C180.698 35.0986 181.376 35.4567 182.259 35.4567C182.901 35.4567 183.566 35.2538 184.184 34.9077L184.075 36.0777C183.518 36.4002 182.84 36.5552 182.066 36.5552C180.335 36.5552 179.137 35.4808 179.137 33.8571C179.137 32.3767 180.19 31.1353 181.824 31.1353C183.518 31.1353 184.401 32.2576 184.401 33.6422C184.401 33.8451 184.377 34.1079 184.341 34.287H180.516Z" fill="#1F2171"/>
<path fill-rule="evenodd" clip-rule="evenodd" d="M189.872 31.9949C189.872 32.4366 189.521 32.8065 189.085 32.8065C188.686 32.8065 188.419 32.5798 188.31 32.3413C187.935 32.4724 187.499 32.8782 187.257 33.3319V35.3851H188.177V36.4598H185.151V35.3851H185.938V32.3292H185.151V31.2307H187.209V32.4127C187.657 31.7085 188.214 31.1354 188.891 31.1354C189.545 31.1354 189.872 31.5292 189.872 31.9949Z" fill="#1F2171"/>
<path fill-rule="evenodd" clip-rule="evenodd" d="M191.36 35.8391C191.239 35.6242 191.179 35.3495 191.179 35.0152V32.3292H190.15V31.2307H191.179V30.1325L192.486 29.5712V31.2307H194.095V32.3292H192.486V34.7647C192.486 34.9317 192.51 35.0391 192.57 35.1466C192.667 35.3137 192.861 35.3972 193.127 35.3972C193.466 35.3972 193.854 35.266 194.168 35.1226L194.059 36.2449C193.696 36.4239 193.272 36.5554 192.788 36.5554C192.147 36.5554 191.626 36.3404 191.36 35.8391Z" fill="#1F2171"/>
<path fill-rule="evenodd" clip-rule="evenodd" d="M195.826 38.8354C195.124 38.8354 194.688 38.4296 194.688 38.0118C194.688 37.5701 194.991 37.3432 195.342 37.3432C195.657 37.3432 195.838 37.5343 195.923 37.7372C196.056 37.7013 196.201 37.6178 196.346 37.4267C196.431 37.3193 196.504 37.1879 196.589 37.0209L196.988 36.197L195.1 32.3293H194.446V31.2305H197.182V32.2693H196.407L197.629 35.0271L198.864 32.2693H198.041V31.2305H200.764V32.3293H200.122L197.642 37.5222C197.52 37.761 197.387 37.9759 197.23 38.155C196.843 38.5966 196.358 38.8354 195.826 38.8354Z" fill="#1F2171"/>
</svg>
